<?xml version="1.0" encoding="utf-8"?>
<svg width="66" height="16" viewBox="0 0 66 16" xmlns="http://www.w3.org/2000/svg" xmlns:xlink="http://www.w3.org/1999/xlink" version="1.1">
<path d="M17.5449 14.6994C17.5449 14.902 17.7092 15.0663 17.9118 15.0663H20.0831C20.2857 15.0663 20.45 14.902 20.45 14.6994V7.85061C20.45 7.09083 21.0659 6.47489 21.8257 6.47489H27.9912C28.1938 6.47489 28.3581 6.31065 28.3581 6.10803V4.43424C28.3581 4.23163 28.1938 4.06738 27.9912 4.06738H20.8466C19.0232 4.06738 17.5449 5.54562 17.5449 7.36911V14.6994Z" fill="#D9D9D9"/>
<path d="M32.8911 14.6998V4.43229C32.8911 4.22968 32.7269 4.06543 32.5243 4.06543H30.3415C30.1389 4.06543 29.9746 4.22968 29.9746 4.43229V14.6997C29.9746 14.9024 30.1389 15.0666 30.3415 15.0666H32.5243C32.7269 15.0666 32.8911 14.9024 32.8911 14.6998Z" fill="#D9D9D9"/>
<path d="M32.8911 2.40946V0.368812C32.8911 0.166201 32.7269 0.00195312 32.5243 0.00195312H30.3415C30.1389 0.00195312 29.9746 0.166201 29.9746 0.368812V2.40946C29.9746 2.61207 30.1389 2.77632 30.3415 2.77632H32.5243C32.7269 2.77632 32.8911 2.61207 32.8911 2.40946Z" fill="#D9D9D9"/>
<path fill-rule="evenodd" clip-rule="evenodd" d="M2.58177 0C2.78438 0 2.94863 0.164248 2.94863 0.366859V4.06067H11.9344C13.7579 4.06067 15.2361 5.5389 15.2361 7.3624V11.7647C15.2361 13.5882 13.7579 15.0664 11.9344 15.0664H3.30173C1.47823 15.0664 0 13.5882 0 11.7647V0.366858C0 0.164248 0.164248 0 0.366859 0H2.58177ZM4.32435 12.6543C3.56456 12.6543 2.94863 12.0384 2.94863 11.2786V6.4934H10.9599C11.7197 6.4934 12.3356 7.10933 12.3356 7.86912V11.2786C12.3356 12.0384 11.7197 12.6543 10.9599 12.6543H4.32435Z" fill="#D9D9D9"/>
<path d="M35.3421 7.36005L35.3176 14.6978C35.317 14.9009 35.4814 15.0659 35.6845 15.0659H37.8775C38.0801 15.0659 38.2444 14.9017 38.2444 14.6991V7.99702C38.2444 7.23723 38.8603 6.6213 39.6201 6.6213H46.4437C47.2035 6.6213 47.8194 7.23723 47.8194 7.99702V14.6991C47.8194 14.9017 47.9837 15.0659 48.1863 15.0659H50.3691C50.5717 15.0659 50.7359 14.9017 50.7359 14.6991V7.37107C50.7359 5.54757 49.2577 4.06934 47.4342 4.06934H38.6438C36.8246 4.06934 35.3482 5.54087 35.3421 7.36005Z" fill="#D9D9D9"/>
<path d="M65.634 4.06934C65.8366 4.06934 66.0008 4.23358 66.0008 4.43619V6.12604C66.0008 6.32865 65.8366 6.4929 65.634 6.4929H57.0036C56.2438 6.4929 55.6279 7.10883 55.6279 7.86862V11.2666C55.6279 12.0264 56.2438 12.6424 57.0036 12.6424H65.634C65.8366 12.6424 66.0008 12.8066 66.0008 13.0092V14.6991C66.0008 14.9017 65.8366 15.0659 65.634 15.0659H55.997C54.1735 15.0659 52.6953 13.5877 52.6953 11.7642V7.37107C52.6953 5.54757 54.1735 4.06934 55.997 4.06934H65.634Z" fill="#D9D9D9"/>
</svg>