<svg id="Layer_1" data-name="Layer 1" xmlns="http://www.w3.org/2000/svg" viewBox="0 0 2068.09 673.06"><title>Nectafy-Logo-2018</title><path d="M2068,487.27a87.93,87.93,0,0,0-.15-9.26c0-.12,0-.24,0-.36-.12-1.51-.28-3-.51-4.55a60.08,60.08,0,0,0-1.58-7.38,66.41,66.41,0,0,0-4.43-11.39,85.88,85.88,0,0,0-4.24-7.59l-1.08-2.19c-1.44-2.91-2.78-5.56-4.06-8q-.87-1.65-1.72-3.18a87.08,87.08,0,0,0-12.46-17.76q-1.09-1.18-2.26-2.37a193.28,193.28,0,0,0-14.69-13,151.24,151.24,0,0,0-54.2-28.27,131.58,131.58,0,0,0-16.77-3.51h0c13-54.18,27-102,36.11-131.57q1-3.17,1.88-6.05l.8-2.56q1.48-4.72,2.7-8.53l.64-2c1.61-5,2.78-8.58,3.42-10.51l.4-1.18.11-.32.06-.19c2.66-7.75,1.49-16.44-2.55-24-.57-1.56-1.5-3.76-2.63-6.3l-.9-2c-.54-1.18-1.1-2.39-1.69-3.66l-1.18-2.51c-.8-1.69-1.63-3.42-2.46-5.14-1.25-2.58-2.5-5.14-3.67-7.54l-1.68-3.41-1-2.11-1.38-2.77c-.33-.77-.69-1.54-1.07-2.29s-.8-1.51-1.24-2.26A36.46,36.46,0,0,0,1972,138a36,36,0,0,0-4.61-4.87,34.76,34.76,0,0,0-5.27-4l-.46-.26c-.66-.39-1.44-.82-2.41-1.32a76.48,76.48,0,0,0-7-3.13,108.21,108.21,0,0,0-10.46-3.46q-2.29-.63-4.69-1.21a147.93,147.93,0,0,0-15.06-2.78c-45.13-6.1-71.73-.65-87.28,6.9a52.82,52.82,0,0,0-13,8.74c-.88.82-1.68,1.63-2.38,2.41a33.46,33.46,0,0,0-3.32,4.29,27.91,27.91,0,0,0-1.87,3.48q-.64,1.44-1.3,3t-1.33,3.37q-1.34,3.54-2.75,7.75h0a41.77,41.77,0,0,0-10.25-17.69h0a63.51,63.51,0,0,0-.46-9.07,88.42,88.42,0,0,0-2.68-13.2c-2.73-9.82-7-20.14-11.83-31.56a150.22,150.22,0,0,0-8.23-16.53A151.91,151.91,0,0,0,1766.9,56c-2.86-4-5.94-7.9-9.33-11.93a121.53,121.53,0,0,0-20.16-19,126.19,126.19,0,0,0-11.62-7.74q-4-2.37-8.2-4.43c-3.32-1.64-6.73-3.12-10.18-4.46-3.8-1.47-7.66-2.78-11.58-3.87A128.63,128.63,0,0,0,1648,.73a146,146,0,0,0-18.51,3.15q-6.19,1.46-12.4,3.47a172.06,172.06,0,0,0-18.59,7.26l-.44.21-.9.44a166.52,166.52,0,0,0-33.38,22.94q-4.86,4.34-9.3,9.08c-14,14.94-26.4,33-36.81,53.64-3.31,6.6-6.55,13.48-9.71,20.56-1.67,3.73-3.32,7.5-4.93,11.34q-2.94.1-5.83.15-5.77.1-11.28,0c-5.51-.11-10.8-.36-15.83-.72-16.78-1.21-30.68-3.68-40-6.27l-2.07-.6c-2.57-.77-4.38-1.44-5.57-1.92-.59-.24-1-.44-1.33-.59l-.35-.17c-.4-.27-.81-.5-1.22-.76a45.33,45.33,0,0,0-8.43-4.27q-1.64-.61-3.31-1.07l-.56-.14a37.79,37.79,0,0,0-3.95-.83,33.86,33.86,0,0,0-8.73-.21,30.35,30.35,0,0,0-6.13,1.31,28.65,28.65,0,0,0-3.81,1.55,28,28,0,0,0-8.22,6.16,29.26,29.26,0,0,0-4.68,6.89,32.51,32.51,0,0,0-2.7,8.21c-3.42-1.21-6.88-2.35-10.43-3.33q-2.09-.58-4.33-1.13t-4.6-1a144.23,144.23,0,0,0-52.16-1.16A160.21,160.21,0,0,0,1261.74,143h0c-.07-1.22-.19-2.42-.35-3.58a46.47,46.47,0,0,0-7.45-19.24,51.2,51.2,0,0,0-5.52-6.84A53.92,53.92,0,0,0,1238,105a65.79,65.79,0,0,0-12.93-6.14h0c1.15-1.77,2.39-3.6,3.67-5.5a25.86,25.86,0,0,0,4-9.87,27.79,27.79,0,0,0,.43-3.59,31.56,31.56,0,0,0-2.92-14.77,14.15,14.15,0,0,0-.71-1.29c-.25-.42-.51-.83-.75-1.26h.15l-.44-1.14-.35-.89-.68-1.72-.56-1.4-.35-.88c-.41-1-.86-2.12-1.35-3.3-.6-1.46-1.26-3-2-4.67q-.58-1.37-1.2-2.78c-3.39-7.82-7.5-16.57-11-22q-.41-.63-.8-1.19a20.28,20.28,0,0,0-2.23-2.76c-.48-.63-1-1.24-1.52-1.84l-.34-.41A35.66,35.66,0,0,0,1189.34,7l-.74-.18c-.64-.17-2.08-.52-4.17-.94-.84-.17-1.78-.35-2.81-.54L1180,5.07c-2.82-.48-6.2-1-10-1.34A144.37,144.37,0,0,0,1154.77,3L1152,3a112,112,0,0,0-20.47,2.36A85,85,0,0,0,1116.73,10a152.49,152.49,0,0,0-17.84,8.92c-18.54,10.75-39.43,27.32-58.35,49.72a243.88,243.88,0,0,0-24.72,35.07c-.28.48-.58,1-.87,1.54-2.59,4.63-5.77,11.1-9.67,19.66q-.93,2-1.92,4.24-3.36.93-6.69,1.63a93.58,93.58,0,0,1-44.87-1c-3.68-1-6.78-2.12-9.58-3.19-1.47-.56-2.89-1.12-4.22-1.65l-1.55-.63a65.32,65.32,0,0,0-7.08-2.49q-1.68-.47-3.26-.76a32.25,32.25,0,0,0-11.22-.26c-.81.13-1.6.29-2.35.48a27.55,27.55,0,0,0-4.17,1.4,26.77,26.77,0,0,0-9.57,6.87,25.17,25.17,0,0,0-2,2.7,25.92,25.92,0,0,0-1.9,3.37q-.5,1.09-.91,2.22l-1-.3a120.64,120.64,0,0,0-26-4.23q-2.94-.15-6-.17c-3.07,0-6.23.09-9.48.32q-3.25.23-6.62.64t-6.85,1a146.79,146.79,0,0,0-29.52,8.56c-2.19.88-4.41,1.85-6.64,2.87q-1.57.71-3.15,1.47-2,1-4.06,2c-2,1-4.09,2.12-6.16,3.28h0c-3.9-8-12.38-18.2-30.77-23.33-19.9-5.53-60.07-6.6-88.32,12.22a105.7,105.7,0,0,0-16.29-7.32c-1.5-.54-3-1-4.58-1.52-1.2-.37-2.38-.77-3.6-1.11a132.32,132.32,0,0,0-17.17-3.53,143.39,143.39,0,0,0-20-1.37q-6.36,0-12.75.56a156.57,156.57,0,0,0-19.1,2.85q-3.16.67-6.31,1.48A158,158,0,0,0,545,140.69h0l-11.54-20.12L521.9,100.46c-.37-.73-.82-1.45-1.23-2.17s-.79-1.46-1.23-2.17a3.28,3.28,0,0,0-.29-.45h0a81.25,81.25,0,0,0-13.19-16c-1.74-1.65-3.55-3.26-5.46-4.81A103.41,103.41,0,0,0,490.78,68c-2.35-1.48-4.77-2.92-7.32-4.28s-5.43-2.75-8.29-4a169.74,169.74,0,0,0-24-8.58,64.28,64.28,0,0,0-9.85-1.91q-2.53-.29-5.11-.39A82.55,82.55,0,0,0,414.41,51a128.3,128.3,0,0,0-24,8.3c-5,2.24-10.06,4.87-15.29,7.82-5.84,3.29-11.84,7-18.05,11.18l-1.32.89L353,81.08h0a74.27,74.27,0,0,0-5.17-10.35q-.53-.88-1-1.69c-.69-1.09-1.37-2.08-2-3s-1.26-1.72-1.83-2.45c-1-1.27-1.83-2.24-2.45-2.92l-.65-.71-.27-.28c-.67-.68-1.37-1.33-2.08-2l-.12-.11A50.56,50.56,0,0,0,317.8,47.22,58.6,58.6,0,0,0,303,45.15a77.22,77.22,0,0,0-10.63.59,111.34,111.34,0,0,0-11.47,2.05c-3.53.81-7.23,1.83-11.06,3l-3.08,1c-3.87,1.23-7.87,2.58-12.08,4.12-7.2,2.62-14.94,5.66-23.31,9.08q-8.38,3.41-17.64,7.3l-5.29,2.21c-5.33,2.23-10.76,4.48-16.24,6.71q-5.48,2.23-11,4.39l-5.51,2.13q-4.5,1.72-9,3.33l-3.4,1.21q-6.61,2.33-13.06,4.35-4.05,1.26-8,2.37c-4.81,1.34-9.51,2.49-14,3.39L116.77,87.52,105.32,72.72a39.47,39.47,0,0,0-4-4.79A35.55,35.55,0,0,0,96.89,64c-.38-.28-.78-.52-1.16-.78A37.85,37.85,0,0,0,91,60.41a38.45,38.45,0,0,0-6.52-2.48,40.16,40.16,0,0,0-10.26-1.38,54.53,54.53,0,0,0-8,.54c-2.06.28-4.14.68-6.23,1.18A76,76,0,0,0,46.15,63q-2.56,1.17-5.07,2.52-1.35.73-2.68,1.52a77.85,77.85,0,0,0-12.54,9.17,75.68,75.68,0,0,0-21.1,32.17c-.72,2.12-1.33,4.29-1.89,6.49A92.67,92.67,0,0,0,.25,131.25a119.17,119.17,0,0,0,2.36,32.07C6,180,10.44,195.14,18.33,210.25c22.85,50.77,57.4,75.37,88.15,84-1.45,3.87-2.93,7.85-4.43,11.89q-4.11,11.1-8.4,22.93c-1.64,4.53-3.2,8.88-4.73,13.15q-2.18,6.11-4.2,11.88-1.09,3.12-2.14,6.14-2,5.69-3.8,11.05c-3.38,9.94-6.36,19.07-9,27.46Q68.31,403.5,67,408q-2.48,8.28-4.46,15.56-1.14,4.19-2.11,8.07c-3.64,14.48-5.66,25.9-6.37,35.26q-.13,1.7-.2,3.31t-.09,3.14a70.92,70.92,0,0,0,.68,11.09q.18,1.26.41,2.46c.31,1.6.67,3.13,1.09,4.61q.32,1.11.67,2.18.74,2.16,1.62,4.21t1.92,4c.11.27.26.53.41.82,1.1,2.5,2.38,5.38,3.77,8.45,4.15,9.22,9.24,20.16,13.29,27.82.22.51.42,1,.67,1.52a51.91,51.91,0,0,0,2.84,4.69c.25.41.5.78.71,1.12,0,.07.11.12.13.19a51.07,51.07,0,0,0,8.13,8.92,54,54,0,0,0,16.87,9.9c4.05,1.5,8.15,2.84,12.26,4a150.83,150.83,0,0,0,65.4,3.39,175,175,0,0,0,48.47-15.73c1.92-.94,3.7-1.87,5.42-2.79q1.52-.81,2.93-1.6c1.62-.91,3.17-1.8,4.58-2.64,1.25-.75,2.38-1.46,3.44-2.14,4.31-2.74,7.15-4.84,8.22-5.67l.41-.32a26,26,0,0,0,9.68-21.58,150.6,150.6,0,0,1,.91-19.59c.78-7.69,2-16.5,3.7-26.25A361.33,361.33,0,0,0,287.49,512c5.83,12.56,12.28,24.92,18.86,36.38A179.19,179.19,0,0,0,334,584.74C357.54,608.59,387.91,626,423.7,636c36.78,10.22,70.81,10.71,99.54,6.11a194.56,194.56,0,0,0,51.24-15.35,142.37,142.37,0,0,0,12.83-6.78q3.88-2.32,7.21-4.69,1.66-1.18,3.18-2.36c1.12-.87,2.16-1.73,3.16-2.59a54.65,54.65,0,0,0,6.59-6.63,40,40,0,0,0,5.68-9.07,34.14,34.14,0,0,0,2-5.83,33.07,33.07,0,0,0,.86-5.52,34.28,34.28,0,0,0-.3-7.46c-.11-.76-.25-1.5-.4-2.21a37.18,37.18,0,0,0-1.06-3.92,36.64,36.64,0,0,0-1.78-4.42q-.59-1.23-1.27-2.41a35.36,35.36,0,0,0-4.8-6.5h0a179.2,179.2,0,0,0,24.95-8c24.36-9.89,48.25-24.55,71.06-43.75h0q3.41,4,7.12,7.69A141.92,141.92,0,0,0,753.63,542q2.53,1.1,5.12,2.11a164.68,164.68,0,0,0,16,5.35q2.94.82,5.93,1.53,6,1.43,12.08,2.43,6.35,1,12.83,1.63a203.25,203.25,0,0,0,70.14-6.2,262.41,262.41,0,0,0,93.39-45.66h0c1.3,2.08,2.67,4.09,4.06,6.08a127.59,127.59,0,0,0,9,11.34l.72.82a120.39,120.39,0,0,0,11.57,11.2,115.06,115.06,0,0,0,13.06,9.55,111.32,111.32,0,0,0,29.42,13,109.56,109.56,0,0,0,15.91,3.17q5.39.67,10.89.81,2.75.07,5.51,0c18.45-.37,37.56-5,56.53-13.88,18.25-8.52,35.52-21.35,51.45-38.18h0A141.08,141.08,0,0,0,1200.65,526,129.42,129.42,0,0,0,1236.08,542a126.67,126.67,0,0,0,55.16,2.82,149.9,149.9,0,0,0,28.3-7.69q2.85-1.07,5.7-2.26,4-1.67,7.95-3.64a132.12,132.12,0,0,0,22.45-14.32,97.14,97.14,0,0,0,42.93,25.45c16.3,4.54,33.37,4.6,50.9.22q2.19-.55,4.39-1.19a130.39,130.39,0,0,0,13.28-4.67q2.07-.85,4.12-1.83a92.46,92.46,0,0,0,8.15-4.42,117.81,117.81,0,0,0,19.83-15.36,106.78,106.78,0,0,0,42,22.76,116.31,116.31,0,0,0,33.62,4.07c4.15-.09,8.35-.39,12.59-.88a149.74,149.74,0,0,0,16-2.76q1.44-.33,2.88-.69,4.43-1.09,8.9-2.46,5.18-1.58,10.4-3.54c3.37-1.26,6.75-2.6,10.13-4.09,1.8-.79,3.59-1.63,5.4-2.56q.12,2.4.35,4.88a124.11,124.11,0,0,0,9.59,37.19,2,2,0,0,0,.1.26l0,.07.57,1.3.28.64.42,1,.38.86c.62,1.42,1.38,3.14,2.24,5.08l.57,1.29.75,1.68c1.37,3.06,2.9,6.46,4.5,9.93l1.7,3.67,1.61,3.42.86,1.82.79,1.64q.82,1.71,1.62,3.32t1.55,3.08c1.12,2.2,2.17,4.17,3.1,5.77,0,.08.11.16.14.24.74,1.47,1.5,2.94,2.3,4.38s1.62,2.88,2.49,4.27c.33.54.68,1.05,1,1.58q1.91,3,4,5.87.78,1.09,1.58,2.15A107.66,107.66,0,0,0,1708.34,654a104.75,104.75,0,0,0,19.47,10.55,108.48,108.48,0,0,0,12.44,4.31,116.09,116.09,0,0,0,28.34,4.13,144.88,144.88,0,0,0,30.71-2.68q6.37-1.22,12.91-3,3.27-.88,6.58-1.89c3.83-1.17,7.71-2.51,11.63-4,2.86-1.06,5.72-2.16,8.62-3.36l2.08-.89q2.73-1.16,5.38-2.36c2.29-1,4.55-2.1,6.74-3.19q4.52-2.25,8.78-4.63t8.27-4.86c33.45-20.72,54.48-47,73.53-70.69,23.13-28.9,39.67-49.52,71.63-54.32a97.62,97.62,0,0,1,11.25-1q2-.07,4-.06t4.19.08a38.64,38.64,0,0,0,6.74-.34C2056.8,513.74,2067.52,502.52,2068,487.27ZM410.23,568.48C296.85,537,269.09,425.9,309.37,312.45c1.06-3,2.14-5.88,3.21-8.77.37-1,.74-1.9,1.1-2.85.73-1.9,1.45-3.79,2.19-5.62.43-1.12.88-2.18,1.32-3.25s.8-2,1.2-3c0,0,0,0,0,0,6.79-16.48,13.85-31.17,20.59-44.06.56-1.12,1.15-2.25,1.75-3.31s1-2,1.58-3,1.07-2,1.63-3,1.07-2,1.61-2.93l1.49-2.71c.56-1,1.1-2,1.64-2.89.42-.77.83-1.48,1.26-2.21,2.42-4.26,4.74-8.24,6.91-11.95,0,0,0-.06.06-.07,6-10.19,11-18.26,14.18-24.17a4.73,4.73,0,0,1,.24-.44c.37-.74.73-1.45,1.06-2.12.11-.19.2-.4.31-.62.27-.57.54-1.12.77-1.61.08-.22.2-.45.27-.66.2-.49.36-.94.53-1.37,0-.19.12-.35.17-.54a12.76,12.76,0,0,0,.31-1.27c0-.09.07-.22.09-.33a4.82,4.82,0,0,0,.06-1.28.14.14,0,0,0,0-.11,1.89,1.89,0,0,0-.25-.84.92.92,0,0,0-.19-.22,1.94,1.94,0,0,0-.45-.46,1.35,1.35,0,0,0-.34-.14,6,6,0,0,0-.6-.2c-.25,0-.53-.06-.85-.08a6.61,6.61,0,0,0-.67,0c-.37,0-.81.1-1.23.16-.27.06-.52.08-.84.16a17.11,17.11,0,0,0-1.72.44l-.84.22c-.95.32-2,.66-3.12,1.07-12.87,4.77-72.26,47.58-91.57,69.58-27.12,81.62-54.57,184.18-53,230.87l-.31.22a1.38,1.38,0,0,1-.32.24,1.23,1.23,0,0,1-.26.18c-.15.12-.31.23-.5.38l-.39.29a4.39,4.39,0,0,1-.67.45c-.18.13-.34.25-.55.37s-.5.35-.77.56l-.7.45a10.7,10.7,0,0,1-.94.61c-.27.19-.53.37-.8.53s-.71.45-1.09.69l-.91.6c-.41.26-.81.48-1.23.75s-.7.4-1.07.6-.87.52-1.33.78l-1.18.67-1.48.84c-.41.22-.83.45-1.28.66s-1.07.56-1.62.88-.9.44-1.38.72l-1.71.86-1.5.72c-.58.28-1.23.58-1.84.89s-1,.45-1.56.71l-2,.87c-.55.21-1.08.49-1.64.71s-1.42.57-2.13.87-1.13.48-1.72.69-1.51.56-2.27.84c-.59.23-1.17.45-1.78.65-.79.29-1.61.57-2.43.84-.58.22-1.17.4-1.77.58-.88.31-1.79.58-2.68.85l-1.73.52c-1.06.32-2.16.58-3.25.89-.43.09-.88.23-1.29.34-1.57.38-3.13.74-4.74,1.1-.28.07-.57.11-.86.16-1.31.3-2.64.55-4,.79l-1.8.28c-1.07.2-2.12.36-3.22.5-.68.1-1.41.16-2.09.25-1,.12-2,.26-3.05.35-.77.07-1.54.12-2.29.18-1,.08-2,.15-3,.21-.82.06-1.63.07-2.42.08-1,.06-2,.07-3,.09-.83,0-1.67,0-2.47,0-1,0-2-.05-3.05-.07-.84,0-1.69-.07-2.55-.14-1,0-2-.12-3.09-.19l-2.62-.28-3.09-.36c-.88-.11-1.78-.26-2.7-.4l-3.14-.53c-.91-.18-1.83-.35-2.72-.54-1.07-.23-2.12-.45-3.18-.71s-1.83-.45-2.76-.71c-.51-.14-1-.22-1.49-.36-.68-.18-1.32-.4-2-.6-2.51-.75-5-1.57-7.57-2.5C78,492,76,470.12,122.44,342.23c1.45-4,2.83-7.81,4.18-11.52.57-1.54,1.11-3,1.66-4.52.79-2.17,1.62-4.37,2.39-6.49.6-1.62,1.19-3.13,1.76-4.73.7-1.82,1.38-3.7,2-5.5s1.33-3.48,2-5.22c.57-1.48,1.15-3,1.71-4.49s1.2-3.16,1.8-4.76,1.12-2.94,1.67-4.36c4-10.51,7.68-19.8,11-28.06l1.18-2.92c.52-1.31,1-2.54,1.55-3.77.38-.92.75-1.83,1.1-2.7.5-1.2,1-2.31,1.43-3.43.39-.88.75-1.79,1.12-2.6.43-1.11.87-2.09,1.28-3.14.36-.79.7-1.63,1-2.38.41-1,.84-2,1.25-3,.33-.71.63-1.42.94-2.11.4-1,.82-1.88,1.22-2.8.27-.62.54-1.26.83-1.85.38-.9.76-1.75,1.13-2.57.28-.59.54-1.19.79-1.75.36-.78.68-1.5,1-2.26.25-.54.5-1.1.75-1.63.35-.69.65-1.38,1-2,.24-.49.48-1,.69-1.49.3-.64.59-1.21.86-1.8s.47-.95.68-1.4.5-1.06.77-1.58.41-.83.63-1.24.45-.94.7-1.41.39-.73.53-1.1l.65-1.23.52-1c.18-.36.36-.7.54-1s.31-.61.49-.92.32-.57.47-.87.31-.54.46-.78.27-.51.4-.72.28-.48.4-.71.22-.4.33-.57a6.52,6.52,0,0,0,.4-.64,4.51,4.51,0,0,0,.26-.44,4.81,4.81,0,0,1,.36-.57c.05-.1.12-.18.18-.3a4.35,4.35,0,0,1,.33-.49,2.18,2.18,0,0,0,.1-.2l.28-.41a.4.4,0,0,0,.08-.1,1.7,1.7,0,0,0,.25-.36s0,0,0,0l.3-.37c0,.05-.21.23-.47.53h-.06c-.11.15-.27.29-.43.48a1,1,0,0,0-.18.15,7.4,7.4,0,0,1-.52.54c-.1.1-.2.22-.32.33l-.52.5-.48.46c-.19.2-.37.34-.56.53s-.39.37-.58.56a6.34,6.34,0,0,0-.65.55c-.21.19-.48.42-.71.66s-.43.37-.64.56-.6.52-.87.74-.45.41-.69.58l-1,.79-.72.61c-.35.29-.72.58-1.11.86s-.51.41-.8.59-.79.6-1.19.91-.56.43-.86.64-.86.57-1.29.88-.61.44-.92.66-.92.61-1.36.91-.66.44-1,.64-1,.58-1.46.91c-.33.23-.69.44-1.06.65s-1,.61-1.52.88-.76.45-1.15.69-1.06.57-1.62.85c-.38.23-.79.44-1.21.66s-1.1.56-1.68.86c-.4.2-.83.42-1.25.61-.58.28-1.19.55-1.8.83-.43.19-.86.37-1.3.6-.61.27-1.21.5-1.86.77-.45.2-.94.38-1.37.6l-1.92.69-1.48.53c-.64.23-1.29.43-1.94.68s-1,.3-1.55.49l-2,.57c-.52.12-1,.28-1.55.44l-2.12.5-1.64.37c-.72.17-1.45.28-2.18.43-.57.1-1.13.19-1.7.32-.73.12-1.49.19-2.22.31s-1.17.15-1.78.24-1.49.13-2.24.2-1.24.14-1.87.17-1.53.07-2.33.1c-.63,0-1.26.06-1.9.09l-2.46-.05c-.64,0-1.24,0-1.86,0-.86,0-1.76-.11-2.63-.16l-1.81-.11c-1-.06-1.94-.19-2.93-.33l-1.61-.19c-1.52-.2-3.07-.45-4.63-.76s-3.33-.72-5-1.2l-.2-.06c-1.45-.4-2.91-.84-4.36-1.35l-.22-.06c-1.61-.58-3.27-1.21-4.91-1.9-.41-.18-.79-.41-1.2-.56-1.24-.56-2.46-1.1-3.69-1.74-.57-.28-1.16-.61-1.74-.94-1-.52-2.1-1.11-3.11-1.69-.68-.39-1.31-.81-2-1.2-1-.6-1.92-1.19-2.87-1.83-.67-.44-1.33-.94-2-1.41-.9-.65-1.8-1.29-2.7-2-.68-.53-1.35-1.08-2-1.61-.86-.71-1.71-1.44-2.58-2.18-.65-.59-1.32-1.23-2-1.82q-1.23-1.15-2.42-2.38c-.65-.65-1.3-1.3-1.92-2-.77-.84-1.53-1.68-2.28-2.55A85.06,85.06,0,0,1,32.39,161c-.4-2-.73-3.87-1-5.72h0c0-.06,0-.08,0-.12-.1-.61-.11-1.2-.21-1.82-.16-1.25-.32-2.5-.44-3.7-.06-.69-.09-1.39-.12-2.1-.08-1.05-.14-2.12-.18-3.12,0-.73,0-1.45,0-2.14,0-.95,0-1.91,0-2.86,0-.71.07-1.37.1-2.05.08-.9.11-1.8.22-2.65.06-.68.15-1.34.23-2s.25-1.65.37-2.45.23-1.27.37-1.89c.16-.78.32-1.55.51-2.3s.33-1.19.48-1.78.43-1.45.66-2.14.39-1.15.58-1.71.49-1.35.75-2,.47-1.06.69-1.59.58-1.27.85-1.88.52-1,.77-1.49.64-1.16,1-1.73a16.28,16.28,0,0,1,.86-1.38c.33-.56.69-1.1,1-1.65s.59-.85.9-1.27.77-1,1.16-1.53l.94-1.16c.41-.48.81-.94,1.23-1.39l1-1.06c.43-.45.87-.91,1.3-1.34s.65-.64,1-.94.91-.81,1.37-1.21.66-.58,1-.82c.48-.41,1-.79,1.44-1.15.32-.27.66-.51,1-.76.5-.36,1-.71,1.54-1,.31-.2.62-.43.92-.64.54-.35,1.09-.66,1.6-1l.89-.53L58.78,92c.23-.15.49-.27.73-.4.65-.32,1.29-.62,1.93-.94a4.25,4.25,0,0,0,.51-.22,47.47,47.47,0,0,1,6.91-2.54c.14-.05.28-.06.43-.13l1.66-.42.56-.1c.48-.11.94-.2,1.38-.27l.61-.11c.4,0,.8-.12,1.17-.14a5,5,0,0,1,.62-.05,5,5,0,0,1,1-.09h.57a6.35,6.35,0,0,1,.87,0,1.59,1.59,0,0,1,.47,0,4.3,4.3,0,0,1,.74.06,2.11,2.11,0,0,1,.41.07,3.08,3.08,0,0,1,.37.07l.14,0a3,3,0,0,1,.87.41c2.55,1.87-7.69,12-5.56,23.6,1,5.6,4.57,11.41,11.07,15.83,0,0,0,0,0,0,.61.44,1.21.86,1.87,1.25.4.24.81.45,1.23.68,1,.52,1.95,1,3,1.45.36.14.72.34,1.1.48,1.22.49,2.52.89,3.86,1.31v0A65.72,65.72,0,0,0,119,134.22v0a2.55,2.55,0,0,0,.36,0c1.35-.06,2.75-.13,4.15-.27.6,0,1.15-.08,1.72-.16,1.95-.22,3.95-.44,6-.79s4.21-.7,6.37-1.12c.71-.13,1.41-.31,2.13-.46,1.45-.32,2.88-.6,4.33-1l2.61-.62c1.33-.34,2.64-.65,4-1,.93-.24,1.84-.5,2.78-.76l3.91-1.08,2.9-.86c1.28-.4,2.59-.79,3.86-1.21l3-1c1.28-.43,2.58-.83,3.89-1.29,1-.33,2-.66,3-1l3.93-1.39c1-.35,2-.71,3-1.09,1.34-.46,2.66-1,4-1.45,1-.34,1.92-.71,2.89-1.08l4.09-1.56c.94-.37,1.88-.73,2.81-1.08l4.27-1.7c.86-.33,1.75-.68,2.61-1,1.52-.6,3-1.2,4.52-1.84.79-.29,1.57-.62,2.35-.93,1.74-.7,3.44-1.4,5.15-2.12l1.65-.66c5.3-2.18,10.52-4.39,15.7-6.55,1.37-.56,2.76-1.16,4.13-1.72.87-.36,1.71-.72,2.59-1.07l4-1.67c.84-.36,1.69-.7,2.54-1L248,92.06,250.64,91l3.61-1.45c.87-.36,1.72-.7,2.6-1l3.48-1.37,2.58-1,3.35-1.25,2.49-.91L272,82.87c.79-.28,1.61-.56,2.43-.82,1-.38,2.09-.69,3.1-1l2.33-.74,3-.9L285,78.7c1-.27,2-.52,3-.75.66-.2,1.33-.37,2-.53,1-.21,2-.45,3-.67.56-.11,1.12-.24,1.66-.33,1.2-.25,2.34-.44,3.48-.57l.93-.16c1.42-.19,2.79-.32,4.12-.41H304c1,0,2-.08,2.89,0,.43,0,.82.07,1.24.11.77.05,1.51.09,2.21.17.42.1.83.2,1.25.27s1,.18,1.48.31a1.77,1.77,0,0,1,.33.15,15.8,15.8,0,0,1,2.05.77c.33.14.68.26,1,.42a13.79,13.79,0,0,1,2.61,1.74s21.14,21.5-2.33,57.08c-3.93,6-9.41,17.52-15.72,32.86C343.82,123.77,410.4,70,446.45,80c100.86,28,34,105.69,8.48,154.49-19.83,38-82.65,133.44-39.27,214.81,1.59,3,3.24,5.85,4.9,8.64.6,1,1.22,1.83,1.81,2.77s1,1.58,1.51,2.34v0c51.89,78.85,140.32,67.47,143.26,73.57C573.67,550.18,498.66,593,410.23,568.48ZM2014,447.58c-4.51-.17-8.74-.06-12.86.17s-8.07.61-11.84,1.17c-56.77,8.38-76.56,54.22-115,94.89-.22.27-.47.52-.73.79-1.54,1.59-3.13,3.22-4.73,4.81-.43.45-.86.87-1.31,1.29-1.46,1.44-3,2.88-4.51,4.32-.59.55-1.16,1.08-1.75,1.62-1.44,1.31-2.93,2.6-4.46,3.9-.69.6-1.41,1.21-2.1,1.84-1.47,1.19-3,2.37-4.51,3.56-.81.66-1.59,1.29-2.44,1.94-1.49,1.13-3,2.26-4.61,3.35l-2.67,1.93c-1.59,1.07-3.22,2.09-4.87,3.15-1,.64-1.93,1.28-2.93,1.9-1.69,1-3.47,2-5.21,3-1,.61-2,1.21-3.07,1.76-1.92,1.06-3.9,2-5.92,3.06-1,.48-1.87,1-2.83,1.44-3,1.44-6.13,2.84-9.35,4.16-2,.8-3.87,1.57-5.79,2.27l-1.83.69c-1.29.48-2.54.91-3.82,1.34-.65.27-1.37.49-2.09.73-1.14.38-2.28.75-3.4,1.11-.72.23-1.43.41-2.12.65-1.14.34-2.25.65-3.36,1-.66.19-1.33.38-2,.54-1.22.33-2.39.62-3.6.92-.5.1-1,.22-1.53.36-1.67.39-3.36.72-5,1l-.89.14c-1.36.27-2.68.51-4,.66-.55.09-1.13.18-1.66.28-1,.14-2.05.24-3.06.37-.61.06-1.18.13-1.78.18-1,.11-1.9.19-2.85.26-.57.05-1.15.1-1.73.12-1,.06-1.92.1-2.84.11-.52,0-1,.06-1.56,0-1.11,0-2.22,0-3.3,0-.32,0-.63,0-1,0-1.39,0-2.79-.09-4.12-.19l-.94-.08c-1-.11-2.08-.19-3.08-.3-.43,0-.88-.11-1.34-.19-.85-.11-1.69-.22-2.51-.34l-1.41-.27-2.43-.48c-.45-.1-.89-.16-1.3-.27-.85-.2-1.66-.4-2.48-.62-.29-.09-.55-.14-.84-.23l-.19-.07c-1.69-.45-3.31-1-4.93-1.57l-.74-.28c-1.58-.56-3.12-1.2-4.62-1.85l-.61-.32c-1.52-.7-3-1.44-4.46-2.25l-.19-.13a66.23,66.23,0,0,1-8.59-5.65l-.17-.12c-1.31-1-2.58-2.1-3.81-3.21l-.14-.14c-22-19.86-29.06-51.15-26.3-71.17,0-.13,0-.25.06-.36.15-1,.31-1.94.49-2.86a1.59,1.59,0,0,1,.09-.4c.19-.94.41-1.86.66-2.71,3.81-13.45,12.64-26.84,17.81-25.65l.12,0h0a3.37,3.37,0,0,1,.86.45.28.28,0,0,1,.12.11,3,3,0,0,1,.78.78v0a5.29,5.29,0,0,1,.72,1.33,20.4,20.4,0,0,1,1.32,7.18c1.36,28.88,31.65,35.39,50.2,18.95a63.23,63.23,0,0,0,7.25-7.66,109.93,109.93,0,0,0,12.62-20.05.79.79,0,0,0,.06-.18c1.28-2.47,2.47-5,3.64-7.64a.54.54,0,0,0,0-.19c2.27-5.15,4.37-10.53,6.33-16.08.12-.36.27-.72.4-1.11.9-2.58,1.75-5.18,2.56-7.82.15-.45.3-.89.44-1.33.82-2.71,1.64-5.41,2.4-8.15-8,7.9-16.6,14.28-25.81,18.09-2,.86-4.11,1.58-6.12,2.25-.4.15-.82.28-1.15.42-1.95.6-3.86,1.16-5.79,1.64l-1.17.28c-2,.45-3.92.86-5.85,1.16a.78.78,0,0,1-.25,0c-1.86.32-3.71.53-5.57.68-.4,0-.79.06-1.15.08-1.82.15-3.64.2-5.41.18-.4,0-.81,0-1.19,0-1.83,0-3.64-.1-5.44-.28l-.33,0c-1.71-.16-3.46-.4-5.11-.73l-1.07-.17c-1.7-.35-3.36-.73-5-1.19-.15,0-.3,0-.48-.1s-.37-.14-.61-.2c-1.7-.51-3.4-1-5.07-1.63l-.38-.16c-1.65-.61-3.28-1.32-4.88-2.07l-.64-.3c-1.63-.78-3.27-1.66-4.86-2.59l-.65-.37q-2.45-1.44-4.83-3.09c-11.74-8.24-21.6-20-28.95-34.35-14.94,17.85-32.44,34.27-50.73,42.3-4,1.78-7.91,3.31-11.78,4.65-1.29.51-2.63.95-3.92,1.36-.83.27-1.63.48-2.47.74s-1.58.49-2.38.72l-2.45.66c-.77.19-1.53.41-2.32.6s-1.59.39-2.37.55l-2.33.53-2.28.43c-.83.18-1.66.29-2.47.45s-1.41.21-2.09.35c-1.07.15-2.12.29-3.17.4-.79.1-1.52.19-2.28.24-1.07.11-2.16.23-3.24.3-.58,0-1.18,0-1.75.06-.88,0-1.75.09-2.62.11-.57,0-1.17,0-1.79,0h-2.49c-.58,0-1.15,0-1.71-.07l-2.55-.11c-.53-.06-1-.08-1.55-.13l-2.93-.31-1.11-.12c-1.29-.18-2.63-.41-3.92-.62l-.78-.16c-1-.2-2-.41-3.07-.66l-1.24-.31c-.56-.16-1.14-.29-1.65-.44l-.74-.21-2-.64c-.65-.19-1.32-.39-1.93-.62s-1.31-.48-2-.72-1.25-.48-1.84-.72l-1.93-.83c-.59-.27-1.17-.53-1.76-.81s-1.26-.63-1.87-1-1.14-.58-1.71-.9-1.21-.7-1.81-1.06-1.1-.63-1.62-1-1.19-.78-1.77-1.19-1-.68-1.53-1-1.17-.86-1.71-1.25l-1.49-1.15c-.56-.44-1.07-.91-1.62-1.37l-1.41-1.2c-.54-.49-1-1-1.57-1.49s-.9-.85-1.35-1.29l-1.52-1.61c-.42-.43-.83-.88-1.21-1.29-.53-.61-1-1.19-1.5-1.77s-.78-.89-1.15-1.37l-1.4-1.84-1.07-1.41c-.47-.65-.9-1.36-1.39-2-.3-.47-.63-.94-.93-1.42-.47-.72-.89-1.44-1.35-2.17-.29-.48-.57-.93-.85-1.4-.49-.85-.92-1.7-1.37-2.54-.22-.42-.46-.79-.66-1.21-.67-1.27-1.28-2.57-1.88-3.89-12.81,18.67-28.14,34.88-45.52,42.09q-3.08,1.22-6.1,2.27c-.41.13-.76.26-1.17.41-1.93.62-3.85,1.17-5.73,1.7-.37.07-.71.16-1.09.26-1.9.46-3.77.87-5.66,1.21l-.18,0c-1.88.31-3.74.58-5.61.75-.35,0-.73.06-1.06.1-1.8.14-3.56.25-5.29.26-.31,0-.64,0-.94,0-1.72,0-3.43-.08-5.1-.2a.45.45,0,0,0-.26,0c-1.7-.16-3.41-.41-5.08-.68a7.37,7.37,0,0,0-1-.16c-1.62-.32-3.2-.69-4.78-1.1a2,2,0,0,1-.31-.07l-1.11-.34c-.58-.19-1.15-.35-1.71-.51s-1-.37-1.45-.56-1.14-.41-1.69-.63-.94-.39-1.4-.57-1.16-.48-1.71-.75-.83-.41-1.29-.61L1373,470c-.4-.21-.77-.43-1.16-.65-.58-.36-1.2-.71-1.76-1l-1-.66c-.62-.41-1.24-.8-1.83-1.21a8.4,8.4,0,0,1-.9-.64c-.63-.45-1.25-.88-1.86-1.36-.26-.2-.52-.41-.77-.63-.66-.51-1.29-1-1.9-1.54a8.7,8.7,0,0,0-.67-.58c-.65-.56-1.31-1.15-1.95-1.76-.17-.17-.33-.33-.54-.52-.66-.63-1.29-1.29-1.94-1.95a6.14,6.14,0,0,1-.43-.49c-.69-.7-1.36-1.42-2-2.16-.11-.12-.22-.27-.36-.4-.65-.76-1.32-1.55-2-2.36-.07-.12-.16-.23-.25-.36-.65-.84-1.29-1.69-1.91-2.55-.09-.11-.18-.22-.24-.31q-1-1.35-1.87-2.74c-.05-.11-.11-.18-.16-.27-.61-.94-1.21-1.91-1.82-2.9,0-.1-.09-.18-.14-.27-.6-1-1.17-2-1.73-3l-.08-.12h0c-1.56-2.87-3-5.85-4.37-9-11.83,15.6-27.18,29.48-47,37.78a125.31,125.31,0,0,1-29.59,8.39h0a1.87,1.87,0,0,1-.44.06q-2.37.32-4.69.59c-.24,0-.5,0-.74.05-1.51.14-3,.26-4.46.31-.32,0-.66.05-1,.05-1.38,0-2.74.1-4.09.06-.43,0-.87,0-1.3,0-1.23,0-2.47-.06-3.68-.11-.55,0-1.1-.09-1.61-.11-1.09-.09-2.17-.16-3.28-.28-.62-.07-1.24-.15-1.91-.26-.94-.12-1.9-.22-2.86-.38-.73-.12-1.44-.25-2.13-.39-.87-.16-1.72-.31-2.59-.52l-2.28-.49c-.79-.19-1.58-.38-2.35-.6l-.83-.21c-.39-.11-.78-.26-1.19-.39-1-.28-2.05-.58-3.08-.93-.65-.23-1.28-.43-1.92-.64-1-.37-2-.74-3-1.15-.61-.23-1.23-.47-1.82-.74-1.09-.44-2.16-.93-3.19-1.41-.51-.25-1-.44-1.46-.68-1.51-.74-3-1.53-4.52-2.33a1.18,1.18,0,0,0-.2-.12c-1.43-.78-2.81-1.62-4.19-2.47-.45-.29-.89-.61-1.36-.87-.95-.64-1.93-1.27-2.88-1.94-.51-.36-1-.74-1.49-1.1-.91-.64-1.78-1.28-2.64-1.95l-1.51-1.21q-1.29-1-2.54-2.11c-.48-.4-.94-.81-1.4-1.21-.89-.79-1.76-1.63-2.66-2.45l-1.09-1c-2.45-2.39-4.81-4.89-7.06-7.51-.36-.4-.66-.82-1-1.24-.74-.93-1.5-1.82-2.25-2.77-.38-.49-.78-1-1.15-1.5-.69-.89-1.35-1.78-2-2.65-.38-.56-.78-1.1-1.15-1.66-.61-.87-1.25-1.78-1.85-2.7-.35-.55-.69-1.1-1.06-1.65-.65-1-1.26-2-1.89-3-.26-.49-.56-.94-.85-1.42-.89-1.5-1.74-3-2.53-4.57-16,23.35-37.86,47-65.76,60-1.91.9-3.79,1.72-5.67,2.5-.53.23-1.1.43-1.65.66-1.37.56-2.74,1.09-4.12,1.57l-1.68.62c-1.65.53-3.27,1.1-4.9,1.6-.2,0-.39.11-.57.15-1.82.55-3.59,1-5.41,1.45-.49.1-1,.2-1.48.32-1.32.29-2.6.59-3.9.81-.54.1-1.1.21-1.65.3-1.44.24-2.86.47-4.28.65l-.91.11q-2.56.3-5,.45c-.46,0-.92,0-1.36.07-1.24.05-2.49.1-3.71.08-.54,0-1,0-1.57,0-1.27,0-2.51,0-3.76-.12-.39,0-.75,0-1.11-.07-1.6-.1-3.15-.26-4.71-.47-.35,0-.74-.1-1.12-.15-1.17-.17-2.34-.36-3.5-.58-.48-.09-1-.18-1.46-.29-1.13-.23-2.27-.5-3.37-.77l-1.13-.29-.44-.12c-.32-.08-.64-.21-1-.29-1.53-.46-3.05-1-4.57-1.51-.53-.18-1.08-.37-1.62-.6-1.54-.62-3-1.23-4.55-1.95l-.91-.4c-1.89-.91-3.72-1.89-5.52-2.94h0c-1.82-1.08-3.57-2.2-5.26-3.42a4.37,4.37,0,0,1-.42-.28c-19.38-13.8-32.95-36.58-38.53-64.28a237.42,237.42,0,0,1-114.71,69.1c-2.13.55-4.21,1.07-6.29,1.53-.65.16-1.29.3-1.94.43-1.46.32-2.92.62-4.34.89-.76.13-1.5.29-2.25.44-1.35.22-2.7.45-4.07.66-.74.13-1.5.24-2.22.33-1.41.22-2.81.41-4.22.56l-1.95.23c-1.74.19-3.44.34-5.16.48-.31,0-.63.06-1,.08-2,.15-4.08.24-6.11.34-.42,0-.83,0-1.26,0-1.56,0-3.11.07-4.68.07-.66,0-1.32,0-2,0-1.33,0-2.66,0-4-.09l-2.07-.08c-1.29-.08-2.6-.15-3.89-.25-.64,0-1.27-.07-1.92-.16-1.42-.11-2.86-.28-4.26-.43-.48-.06-1-.09-1.45-.16-1.91-.26-3.77-.49-5.67-.8a1,1,0,0,0-.3-.05c-1.71-.31-3.44-.62-5.14-1-.56-.11-1.11-.23-1.65-.37-1.25-.26-2.51-.56-3.75-.86-.61-.16-1.23-.31-1.84-.47s-1.19-.31-1.78-.47c-.43-.12-.82-.27-1.25-.38-1.2-.35-2.41-.73-3.59-1.12-.79-.24-1.62-.51-2.41-.77-1.25-.43-2.47-.87-3.7-1.35-.7-.28-1.41-.51-2.1-.81-1.56-.61-3.09-1.29-4.62-1.95-.34-.17-.68-.27-1-.43-1.82-.85-3.6-1.71-5.37-2.64-.57-.3-1.1-.61-1.68-.91-1.21-.67-2.39-1.31-3.55-2-.65-.41-1.3-.83-2-1.23-1-.65-2.07-1.28-3.09-2-.66-.46-1.3-.88-1.94-1.34-1-.69-2-1.38-2.92-2.1-.62-.45-1.23-.94-1.85-1.4l-2.85-2.35-1.62-1.39c-1.06-.94-2.05-1.92-3.09-2.88l-1.14-1.08q-2-2-3.95-4.19c-.29-.31-.55-.63-.79-.95-1-1.16-2-2.29-2.91-3.47-.41-.54-.84-1.07-1.23-1.63-.77-1-1.49-2-2.2-3-.43-.62-.84-1.25-1.25-1.87-.65-1-1.31-2-1.91-3-.41-.67-.78-1.33-1.17-2-.59-1-1.16-2.1-1.73-3.21-.34-.62-.68-1.28-1-2-.56-1.16-1.1-2.38-1.66-3.6-.23-.57-.5-1.15-.76-1.74-.74-1.82-1.46-3.67-2.11-5.55-20.41,21.51-51.38,48.39-90.12,64-2.37,1-4.73,1.84-7.1,2.67-.68.24-1.35.46-2,.68-1.8.61-3.62,1.16-5.44,1.7-.65.18-1.26.37-1.89.53-2.37.67-4.74,1.28-7.07,1.79-.36.06-.72.15-1.08.23-2,.45-4,.83-6,1.16-.71.14-1.41.26-2.13.36q-2.77.44-5.54.75c-.53.06-1.07.15-1.62.22-2.32.24-4.61.43-6.91.56l-1.62,0c-1.81.08-3.6.14-5.41.14-.69,0-1.39,0-2.11,0-1.89,0-3.8-.07-5.69-.16-.37,0-.79,0-1.19-.05-2.21-.14-4.44-.32-6.64-.57-.62-.07-1.25-.16-1.85-.22-1.65-.24-3.3-.45-4.94-.73-.66-.08-1.32-.22-2-.32-2.05-.37-4.1-.78-6.13-1.26a1.33,1.33,0,0,1-.34-.05c-1.75-.4-3.45-.83-5.16-1.3-.26-.08-.49-.18-.76-.24-2.6-.74-5.13-1.54-7.64-2.43l-.17,0c-2.6-.94-5.14-2-7.63-3.07-.64-.28-1.31-.61-2-.9-1.83-.86-3.64-1.72-5.4-2.68-.71-.37-1.42-.73-2.15-1.14-1.76-1-3.51-2-5.23-3.07-.56-.38-1.12-.68-1.66-1a106.72,106.72,0,0,1-12.85-9.81c-.27-.26-.53-.53-.82-.78-1.67-1.55-3.3-3.1-4.87-4.77-.39-.43-.78-.85-1.2-1.26-1.46-1.63-2.87-3.26-4.23-4.95-.22-.27-.45-.49-.66-.78a.25.25,0,0,0,0-.06c-14.4-18.28-22.24-41.79-20.06-68.93,4.4-54.14,31.39-80.76,55.15-93.8.66-52,22.77-86.9,51.89-107.44v0a1.59,1.59,0,0,1,.37-.26c1.62-1.13,3.26-2.21,4.93-3.26.43-.27.83-.54,1.27-.79,1.64-1,3.31-2,5-2.9.44-.27.9-.52,1.36-.75,1.67-.87,3.35-1.76,5.07-2.57l1.42-.68c1.71-.76,3.4-1.55,5.1-2.23.52-.2,1-.41,1.5-.61,1.75-.65,3.44-1.34,5.18-1.91.5-.22,1-.36,1.54-.56,1.72-.57,3.46-1.1,5.18-1.63l1.56-.4c1.73-.48,3.46-.95,5.21-1.35.51-.12,1-.18,1.53-.31,1.75-.39,3.48-.77,5.24-1.06.41-.1.85-.12,1.23-.19a128.31,128.31,0,0,1,16.37-1.64c.77,0,1.59-.08,2.33-.1,1.14,0,2.25,0,3.38,0s2.24,0,3.3,0,2.05.11,3,.2c1.16.06,2.32.16,3.47.26,1,.1,1.93.22,2.89.35,1.15.15,2.3.28,3.43.47.94.15,1.87.31,2.79.48,1.11.21,2.22.43,3.32.68.93.2,1.82.44,2.71.65.62.16,1.29.3,1.92.47l1.31.4,2.22.69c1.1.36,2.18.75,3.26,1.16.69.24,1.37.5,2.05.77,1.12.45,2.24,1,3.33,1.43.56.27,1.12.5,1.66.79,1.62.78,3.17,1.58,4.67,2.49a80.49,80.49,0,0,1,16.55,13.07c.57-1,1.19-2.05,1.84-3,.2-.28.39-.56.58-.82.52-.77,1.09-1.49,1.67-2.2.19-.23.33-.43.5-.63.77-.86,1.53-1.7,2.36-2.5.2-.16.4-.35.59-.54.66-.62,1.36-1.23,2.07-1.83.27-.19.5-.41.78-.61.88-.68,1.8-1.37,2.72-2,0,0,.06,0,.09-.06,1-.67,2-1.27,3-1.86l.91-.5c.8-.43,1.64-.86,2.48-1.27.24-.12.51-.25.75-.36,1.05-.51,2.16-1,3.25-1.41.27-.14.52-.22.77-.33.89-.32,1.79-.66,2.7-.94.32-.14.65-.24,1-.37,1.07-.33,2.16-.66,3.25-1a.42.42,0,0,0,.22-.07c1.2-.29,2.34-.58,3.52-.85l1-.23c.92-.2,1.84-.37,2.76-.53a7.69,7.69,0,0,1,.91-.15c1.14-.23,2.34-.4,3.49-.57.3,0,.59-.06.87-.11l2.78-.31,1.08-.09c1-.07,2.1-.16,3.12-.23l.4,0c1.14,0,2.26-.1,3.4-.12l1,0c.86,0,1.7,0,2.51,0l1,0c1.07,0,2.11.05,3.12.12.3,0,.55,0,.83.06.79,0,1.57.1,2.33.15a8.6,8.6,0,0,0,1,.09c.81.1,1.63.19,2.45.31a2.72,2.72,0,0,1,.48.06c.91.11,1.79.24,2.64.4a6.16,6.16,0,0,1,.86.15c.62.1,1.24.22,1.83.36a6.41,6.41,0,0,0,.73.16c.74.16,1.45.34,2.1.53l.08,0c.91.26,1.74.51,2.52.78a.26.26,0,0,1,.13.06,17.34,17.34,0,0,1,2,.82,3.08,3.08,0,0,1,.52.28c.41.2.81.41,1.14.62s.34.24.49.37a4.73,4.73,0,0,1,.71.62,3.1,3.1,0,0,1,.37.41,2.21,2.21,0,0,1,.38.62,2.3,2.3,0,0,1,.18.41,2.61,2.61,0,0,1,.07.68c0,.11,0,.23,0,.39a2.28,2.28,0,0,1-.35.73,1.56,1.56,0,0,1-.18.36,7,7,0,0,1-1.12,1c-.89.66-1.8,1.39-2.72,2.11-.34.28-.68.55-1,.83-.62.48-1.21,1-1.84,1.55-.38.32-.77.66-1.19,1L751,174.45l-.6.6a205.65,205.65,0,0,0-19.68,21.88c-2.14,2.71-4.28,5.5-6.39,8.41a3.64,3.64,0,0,1-.31.36c-2,2.84-4.11,5.71-6.12,8.68-.18.24-.34.5-.5.74q-3,4.36-5.85,8.87c-.15.27-.32.53-.49.78-1.94,3.1-3.84,6.2-5.72,9.4-.81,1.41-1.67,2.75-2.55,4-.28.41-.57.82-.84,1.21-.61.86-1.23,1.74-1.87,2.57-.33.44-.68.86-1,1.28-.61.77-1.23,1.53-1.88,2.25-.34.37-.66.77-1,1.12-.71.79-1.45,1.54-2.16,2.26-.28.28-.52.55-.79.8-1,1-2,1.9-3,2.76-.23.23-.46.39-.66.6-.81.68-1.61,1.32-2.4,1.93l-1.17.89c-.64.47-1.3,1-2,1.41-.4.3-.83.58-1.24.87-.64.41-1.29.81-1.92,1.23-.41.22-.83.51-1.24.77-.69.4-1.39.79-2.07,1.15l-1.07.58c-1,.52-1.93,1-2.88,1.48-.5.23-1,.44-1.49.66s-1,.48-1.5.69l-1.62.68c-.43.15-.85.33-1.31.49s-1.09.45-1.66.63l-1,.38-1.78.58s0,0,0,0c-2.84.92-5.52,1.63-7.9,2.2a51.46,51.46,0,0,1-10.67,2,43.3,43.3,0,0,1-7,.07,4.83,4.83,0,0,1-.57,0c-.48-.06-.91-.07-1.32-.12a4.36,4.36,0,0,1-.51,0c-.44-.05-.85-.1-1.22-.17H634a27.67,27.67,0,0,1-3.14-.64c-10.17-3.58-24-11.84-4.06-16.14a22.44,22.44,0,0,0,12.95-7.79,24.47,24.47,0,0,0,1.67-2.35s0-.07,0-.1a24.08,24.08,0,0,0,3.11-7.88.4.4,0,0,0,0-.18,25.41,25.41,0,0,0,.54-5.49c0-.12,0-.24,0-.37a25.89,25.89,0,0,0-.17-2.67,19.26,19.26,0,0,0-.47-2.67,3.53,3.53,0,0,0-.1-.43,18.72,18.72,0,0,0-.61-2.15c-.06-.16-.1-.32-.17-.47a17.85,17.85,0,0,0-1-2.34c-.06-.14-.12-.26-.17-.35a17.2,17.2,0,0,0-1.06-1.86c-.14-.19-.25-.39-.36-.57a16.71,16.71,0,0,0-1.43-1.88l-.08-.1a24.26,24.26,0,0,0-1.72-1.76c-.18-.16-.36-.31-.55-.46a16.89,16.89,0,0,0-1.59-1.19c-.15-.1-.33-.22-.47-.33a17.71,17.71,0,0,0-2.21-1.18c-.19-.1-.4-.19-.58-.27-.65-.25-1.31-.49-2-.69-.25-.07-.52-.17-.79-.22a14.12,14.12,0,0,0-1.52-.32,6.32,6.32,0,0,0-.85-.18c-.79-.11-1.67-.21-2.52-.24-33-1.05-51.36,49-43,73.55l3.9.4c2.54.7,5,1.52,7.37,2.35.24.07.5.18.71.26,45.94,16.6,58,55.53,33.22,43.54A64.31,64.31,0,0,0,611.16,323s.11,0,.16.07q-3-.58-6-.9a1.14,1.14,0,0,1-.36,0,72.42,72.42,0,0,0-11.78-.17l-.64,0a72.68,72.68,0,0,0-11,1.73c-.33.1-.65.16-1,.25a59.71,59.71,0,0,0-9.7,3.38c-.38.16-.75.34-1.11.49-1.48.7-2.93,1.45-4.32,2.26q-1.84,1.09-3.53,2.29c-.35.23-.7.52-1,.75-.78.6-1.57,1.21-2.32,1.83-.36.29-.7.56-1,.89-.81.68-1.58,1.41-2.35,2.13-.22.21-.46.41-.67.65-.93.92-1.83,1.92-2.69,2.92-.23.27-.45.53-.67.81-.64.77-1.25,1.55-1.84,2.34l-.79,1.07c-.54.78-1,1.55-1.57,2.34-.19.34-.43.69-.65,1-.66,1.12-1.32,2.24-1.92,3.36l-.23.53c-.52,1-1,1.95-1.41,3-.2.4-.35.82-.54,1.24-.3.78-.64,1.57-.91,2.37-.16.43-.33.87-.48,1.32-.3.88-.57,1.76-.82,2.66-.11.33-.21.64-.29,1-.32,1.15-.58,2.32-.83,3.48-.08.46-.16.91-.23,1.35-.12.78-.24,1.54-.37,2.29-.08.51-.15,1-.18,1.54-.11.74-.14,1.46-.19,2.17,0,.49-.08,1-.1,1.49-.07,1.12-.07,2.22-.06,3.31,0,.48.06.94.07,1.43,0,.69.07,1.34.15,2s.11,1.12.18,1.66.15,1.17.23,1.76.19,1.11.3,1.66.27,1.17.4,1.75c.23.88.47,1.72.7,2.58.2.6.38,1.18.58,1.76s.41,1.07.64,1.63.37.9.6,1.34.5,1.07.75,1.6.48.82.71,1.24.57,1,.88,1.5.61.87.91,1.27a26.75,26.75,0,0,0,1.79,2.33c.31.36.61.72.92,1s.82.82,1.26,1.23.68.62,1,1,.9.73,1.38,1.09.77.56,1.16.83c.83.56,1.69,1.1,2.59,1.59,5.82,3.16,13.14,4.62,21.94,3.64l1.34-.16c1.32-.18,2.65-.43,4-.72.3,0,.59-.12.89-.18,1.56-.35,3.14-.74,4.75-1.24,13.16-4,28-10.41,42.46-18.19.07,0,.2-.13.38-.22a.76.76,0,0,0,.16-.16,5.1,5.1,0,0,0,.57-.33c.06-.07.17-.12.23-.19.31-.19.62-.4,1-.68l.15-.08c.87-.61,2-1.36,3.22-2.25a1,1,0,0,1,.16-.11l1.77-1.26c.16-.1.31-.22.45-.32.59-.4,1.17-.87,1.78-1.3.16-.09.31-.23.47-.33.68-.48,1.37-1,2.08-1.54,9.8-7.31,23.43-18.28,33.65-29.92,1.53-1.73,3-3.47,4.32-5.18a.17.17,0,0,1,.07-.12c.61-.8,1.19-1.58,1.74-2.37.1-.12.18-.23.26-.33.5-.73,1-1.43,1.45-2.15.13-.19.24-.36.34-.53.43-.64.81-1.29,1.19-1.94.1-.24.29-.46.41-.7.32-.59.65-1.19.93-1.76.15-.3.31-.56.44-.82.28-.61.53-1.16.78-1.74.1-.29.26-.58.34-.83.35-.83.66-1.69.91-2.5.47-1.91,1-3.82,1.52-5.82.5-1.82,1.06-3.71,1.63-5.62a3.44,3.44,0,0,0,.13-.44,252,252,0,0,1,11-29.47h0c.51-1.16,1.06-2.34,1.59-3.47s1.06-2.22,1.58-3.36,1.15-2.34,1.75-3.52c.93-1.84,1.89-3.72,2.89-5.58.52-1,1.11-2,1.67-3,.88-1.63,1.8-3.25,2.75-4.9.58-1,1.17-2,1.75-3,1.14-1.92,2.33-3.82,3.57-5.74.5-.82,1-1.64,1.58-2.45q2.21-3.44,4.63-6.89c.37-.5.75-1,1.1-1.53,1.47-2.07,3-4.12,4.53-6.16.46-.61.91-1.23,1.39-1.82,1.87-2.42,3.78-4.82,5.78-7.25.43-.51.87-1,1.31-1.54,1.89-2.24,3.81-4.47,5.83-6.66l1-1.09q3.36-3.66,7-7.33c.53-.54,1.06-1.07,1.63-1.62,2.47-2.47,5-5,7.67-7.43,2-1.84,4-3.59,5.94-5.32.11-.09.24-.21.35-.31,40.47-35.18,74.51-42.92,99.08-41.35a.59.59,0,0,1,.18,0c1.61.11,3.18.23,4.68.41.11,0,.21,0,.33.05,1.44.19,2.87.4,4.25.61a1.71,1.71,0,0,0,.45.07c1.32.26,2.6.5,3.89.8.15,0,.31,0,.49.1,1.2.28,2.42.59,3.56.9l.2,0,.41.14,2.14.62.48.17c.83.25,1.6.53,2.38.79.18.06.36.12.54.2.73.27,1.44.52,2.13.81l.18.05c.73.28,1.46.6,2.16.9a2.15,2.15,0,0,0,.41.16c1.41.62,2.68,1.23,3.9,1.83l.27.15c.62.29,1.2.61,1.74.89h0c.56.3,1.08.58,1.55.87a.46.46,0,0,1,.2.11l1.4.79s0,0,.05.06l1.16.73c.05,0,.09.07.14.1a11.67,11.67,0,0,1,1,.65l.12.1.78.54.07,0c.25.19.48.37.66.48a.45.45,0,0,0,.11.08c.15.11.29.23.42.35l0,0a2.15,2.15,0,0,0,.28.21s0,0,0,0l.08.06a49.22,49.22,0,0,1,3.92,3.37.55.55,0,0,0,.14.14c10.38,9.89,18.35,25.51,21.42,42,.27,1.48.49,3,.68,4.48.07.69.16,1.33.23,2,.1,1,.19,2,.27,3,0,.7.08,1.33.11,2,0,1.26.05,2.51,0,3.75a10,10,0,0,0,0,1.15c-.06,1.59-.19,3.16-.34,4.74,0,.51-.12,1-.17,1.51-.16,1.17-.33,2.34-.54,3.51-.11.48-.19,1-.27,1.42-.33,1.61-.72,3.17-1.16,4.7-.56,1.9-1.17,3.78-1.79,5.61-.21.56-.42,1.1-.61,1.66-.45,1.25-.9,2.51-1.38,3.73-.2.56-.44,1.06-.64,1.56-.5,1.23-1,2.46-1.49,3.6-.24.57-.5,1.11-.78,1.65-.47,1.11-1,2.21-1.47,3.27-.27.52-.53,1-.79,1.54-.53,1-1,2.1-1.58,3.06-.25.52-.53,1-.79,1.45-.54,1-1.08,2-1.62,2.88-.27.45-.56.85-.83,1.28-.53.92-1.1,1.82-1.67,2.69-.25.37-.53.72-.77,1.11-.59.84-1.17,1.7-1.74,2.5a12.3,12.3,0,0,1-.81,1c-.56.75-1.13,1.53-1.7,2.22-.28.33-.53.58-.8.9-.55.68-1.12,1.31-1.7,1.9-.27.3-.55.52-.84.82-.54.52-1.07,1.06-1.59,1.54-.29.26-.56.46-.83.68a17.1,17.1,0,0,1-1.53,1.21c-.31.23-.57.37-.86.56a14,14,0,0,1-1.4.87c-.29.15-.57.23-.85.36-.44.18-.86.4-1.29.53a5.17,5.17,0,0,1-.83.16,10.46,10.46,0,0,1-1.17.19c-.27,0-.53-.06-.78-.09a8.84,8.84,0,0,1-.94-.12l-.11,0a17.3,17.3,0,0,1-3.26-1.31,24.1,24.1,0,0,1-2.89-1.73c0-.05-.08-.07-.16-.14a31.7,31.7,0,0,1-5.74-5.46h0c-4-4.77-7.9-11.45-12.14-20.42-.82-1.76-1.58-3.52-2.25-5.3,0,0,0,0,0-.07a88.16,88.16,0,0,1-4-14.05,1.79,1.79,0,0,1,0-.19c-.3-1.52-.56-3-.81-4.49,0-.1,0-.18-.05-.29-.22-1.44-.42-2.88-.57-4.31,0-.09,0-.19-.05-.3-.15-1.43-.28-2.81-.41-4.2,0-.05,0-.13,0-.18-.13-1.42-.22-2.76-.27-4.12v0c-.22-4.1-.23-7.83-.11-11,0,0,0-.05,0-.05,0-1,.07-2,.12-2.87,0-.06,0-.13,0-.16,0-.89.09-1.67.15-2.41a1.53,1.53,0,0,1,0-.17c.05-.69.1-1.33.16-1.9l0-.14c0-.56.11-1,.13-1.41,0,0,0-.07,0-.13,0-.37.06-.65.1-.86h0a2,2,0,0,1,0-.33S838.05,257,815.69,276.95c-1.92,1.7-3.74,3.43-5.5,5.1-.5.52-1,1-1.46,1.51-1.32,1.34-2.62,2.69-3.89,4-.38.43-.81.85-1.17,1.28-1.57,1.75-3.07,3.46-4.51,5.19-.27.35-.53.73-.81,1.07-1.15,1.42-2.25,2.87-3.3,4.29-.38.53-.76,1.06-1.12,1.57-1.08,1.51-2.1,3-3.09,4.51-.17.29-.36.56-.53.85-1.1,1.76-2.14,3.53-3.12,5.27-.28.51-.55,1-.8,1.52-.72,1.31-1.38,2.62-2,3.95-.3.53-.53,1.07-.78,1.61-.8,1.72-1.56,3.4-2.22,5.15-.11.34-.23.65-.35,1-.57,1.45-1.06,2.86-1.54,4.27-.21.6-.39,1.25-.6,1.84-.34,1.21-.69,2.43-1,3.6-.14.56-.3,1.13-.43,1.7-.38,1.61-.69,3.19-1,4.79-.1.63-.17,1.25-.27,1.9-.17,1-.3,2.09-.41,3.1-.1.74-.17,1.46-.24,2.19-.07,1-.13,2-.17,3.08s-.06,2.07-.05,3.09,0,2,0,3c0,.82.06,1.63.13,2.42s.14,1.46.2,2.19.19,1.68.3,2.51c.11.65.22,1.3.35,2,.24,1.51.56,3,.94,4.52.12.53.24,1,.39,1.57.26.9.53,1.8.82,2.7.14.45.26.85.43,1.29a62.82,62.82,0,0,0,3.75,8.72c.16.28.32.6.47.9.52.91,1,1.84,1.58,2.7l.16.25a52.8,52.8,0,0,0,3.93,5.56c0,.06.11.13.14.19.67.87,1.39,1.7,2.11,2.51.19.18.34.35.53.54.72.77,1.44,1.53,2.2,2.29v0A62,62,0,0,0,818.58,415v0c.6.2,1.19.38,1.8.58,1.5.43,3,.83,4.56,1.16l.65.14c1.46.29,2.92.55,4.42.78.45.05.9.14,1.34.19,1.71.21,3.45.4,5.22.5a76,76,0,0,0,25.6-3c17.71-5,34.35-15.7,49.11-28.44,0,0,0,0,0,0,1.43-1.21,2.83-2.45,4.23-3.71a1.12,1.12,0,0,1,.21-.16c1.3-1.21,2.61-2.45,3.9-3.67l.37-.35q1.84-1.76,3.62-3.57c.15-.16.35-.33.54-.51,1.12-1.12,2.23-2.28,3.33-3.42l.68-.71c1-1.1,2-2.2,3.07-3.32l.82-.85c.95-1.1,1.92-2.13,2.85-3.21a350.23,350.23,0,0,0,31.1-41c2.85-13.09,6.76-28.53,12.21-45.79a4,4,0,0,1,.13-.43q3.07-9.81,6.84-20.39a.73.73,0,0,1,.09-.25c.76-2.17,1.57-4.36,2.37-6.59.14-.27.23-.57.34-.87q1.12-3,2.35-6.15c.19-.5.4-1,.59-1.52.7-1.86,1.45-3.76,2.21-5.63.29-.7.55-1.37.83-2,1-2.49,2-5,3.1-7.58a58.1,58.1,0,0,1-14.49-1.35l-1.54-.39c-.49-.14-1-.32-1.46-.45s-.83-.27-1.24-.42c-.9-.3-1.76-.61-2.6-.94-.29-.14-.58-.24-.85-.36-1.14-.48-2.22-1-3.31-1.54-.3-.14-.61-.3-.89-.46-.77-.4-1.54-.81-2.3-1.25l-1.22-.74L965.31,216l-1.28-.89c-.58-.39-1.13-.81-1.69-1.2l-1.31-1c-.51-.4-1-.83-1.53-1.25s-.85-.69-1.25-1.06-1-.89-1.49-1.35c-.86-.81-1.7-1.63-2.54-2.45-.32-.3-.65-.63-1-1-.51-.53-1-1.07-1.54-1.65-.29-.31-.56-.61-.86-.94-.49-.57-1-1.16-1.54-1.75q-.32-.42-.7-.82c-.52-.67-1-1.3-1.57-2-.15-.18-.28-.37-.45-.56A137.77,137.77,0,0,1,930.41,171a.37.37,0,0,0-.07-.1,165.08,165.08,0,0,1-6.24-15.7s0,0,0-.09c-.47-1.3-.74-2.22-.9-2.68,0-.08,0-.1,0-.11l-.09-.32a3.43,3.43,0,0,1-.25-.85.31.31,0,0,0,0-.18.81.81,0,0,1,.1-.35c.05-.05.06-.1.13-.1a.86.86,0,0,1,.52-.11h0a5.22,5.22,0,0,1,1,.17s0,0,.08,0l.22.08c.33.09.66.22,1.06.35.11,0,.23.1.37.15.48.17,1,.36,1.52.58l.17,0,2.42,1,2,.79.7.26c.74.29,1.53.59,2.32.88a3.71,3.71,0,0,0,.54.21c1,.39,2.11.79,3.25,1.17l.07,0c1,.38,2.16.73,3.33,1.12l.85.26c1,.29,2,.6,3,.9l1,.28,2.16.57,1.33.34c.74.19,1.5.33,2.28.52l1.44.3c.78.18,1.59.33,2.41.49.49.1,1,.18,1.5.25.82.16,1.67.31,2.51.43.52.09,1.06.18,1.61.25.86.13,1.74.23,2.64.34l1.67.19,2.77.26c.58,0,1.15.1,1.74.14.94.07,1.92.1,2.88.13.61,0,1.22.08,1.83.1l3,0c.61,0,1.25,0,1.91,0,1,0,2-.07,3.09-.09l2-.09c1,0,2.13-.15,3.23-.22.67-.06,1.36-.09,2.05-.16,1.11-.1,2.22-.24,3.33-.4.71-.07,1.4-.14,2.13-.23,1.13-.16,2.31-.37,3.49-.56.7-.12,1.41-.21,2.15-.36,1.19-.22,2.42-.49,3.64-.73.73-.16,1.44-.3,2.14-.47,1.28-.3,2.59-.62,3.86-1,.73-.18,1.41-.34,2.13-.54,1.41-.37,2.85-.82,4.3-1.25.62-.19,1.21-.36,1.83-.57,2.08-.65,4.19-1.36,6.31-2.16,6-13.73,11.88-26.61,15.76-33.28,25.76-44.44,62.78-72.32,88.73-83.12,23.07-9.6,53.22-2,53.22-2-1.12,1.71-2.23,3.34-3.29,5-.61.89-1.22,1.83-1.79,2.69-.29.47-.6.91-.9,1.38-1.48,2.25-2.93,4.49-4.29,6.67-4.68,7.49-8.69,14.44-12.29,21.34a263.36,263.36,0,0,0-11.43,24.89c-.11.25-.22.53-.32.83q-1.14,2.77-2.25,5.68c-.23.49-.4,1-.58,1.5-.69,1.79-1.39,3.62-2,5.53-.26.57-.46,1.17-.69,1.8-.69,1.88-1.38,3.82-2.1,5.81-.2.62-.43,1.2-.64,1.82-.9,2.59-1.86,5.27-2.78,8.07,26.88-5.07,54.26-7.29,72.09-3.69l.43.1c1.08.22,2.07.49,3.08.74.18,0,.35.08.5.14a2,2,0,0,1,.33.1c1.23.36,2.39.69,3.48,1.11a1.18,1.18,0,0,1,.19.1,26.15,26.15,0,0,1,3,1.35l.42.21c6.38,3.42,9.63,8.57,8.32,15.82a90.22,90.22,0,0,1-5.25,18.33.29.29,0,0,0-.09.14,88.74,88.74,0,0,1-33.81,40.62l-.07,0a93.69,93.69,0,0,1-16.29,8.59l-.37.16c-1.64.66-3.23,1.24-4.78,1.77a3.26,3.26,0,0,1-.35.1,60.87,60.87,0,0,1-8.37,2.17c-.2.06-.4.07-.58.12-1.14.2-2.22.32-3.2.42l-.59.06a23.63,23.63,0,0,1-2.64.05,1,1,0,0,1-.23,0,11.85,11.85,0,0,1-1.9-.24,1.69,1.69,0,0,0-.23,0l-.11-.06a4.09,4.09,0,0,1-1-.44c-7.89-5,4.83-18.49,4.83-18.49a6.59,6.59,0,0,0-1.76-.81c-.29-.08-.63-.14-1-.2l-.78-.16c-.38,0-.79-.07-1.24-.07a4.33,4.33,0,0,0-.85-.06,13.38,13.38,0,0,0-1.58,0,5.88,5.88,0,0,1-.77,0c-.81.07-1.67.19-2.56.29-.22.07-.44.1-.65.16-.72.1-1.4.21-2.12.36l-1.11.27c-.61.12-1.21.29-1.84.43-.4.11-.79.25-1.21.36-.58.18-1.18.32-1.81.52l-1.33.42-1.77.6c-.47.16-.91.34-1.36.52s-1.19.44-1.78.68-.92.36-1.38.54c-.61.26-1.21.49-1.8.77s-.92.41-1.33.6l-1.82.82-1.29.64c-.58.32-1.22.62-1.82.94-.39.2-.81.43-1.2.65-.63.31-1.19.67-1.78,1-.4.22-.76.45-1.14.66-.61.37-1.24.77-1.85,1.16a8.4,8.4,0,0,0-.86.57c-.9.57-1.78,1.17-2.56,1.78-30.14,92.76-53,177.12-36.87,194.93.71.79,1.43,1.46,2.13,2.11.24.21.48.38.74.58a14.23,14.23,0,0,0,1.46,1.08,6.14,6.14,0,0,0,.85.54,12.07,12.07,0,0,0,1.4.77c.29.15.57.29.87.41a13,13,0,0,0,1.44.51l.92.27c.32.09.68.16,1,.23s.62.11.95.14.8.08,1.22.1c7.24.3,14.92-4.23,22.44-11.35,7.35-7,14.54-16.41,21.05-26.38,0,0,0,0,.07-.07q1.92-2.92,3.77-5.9c0-.06.06-.12.1-.17,1.19-2,2.38-3.91,3.5-5.86.07-.06.07-.14.16-.24,1.15-1.92,2.25-3.85,3.34-5.75,0-.88.11-1.81.2-2.8,0-.28,0-.56.09-.82.05-.78.12-1.56.21-2.39.05-.34.07-.67.13-1,.08-.85.17-1.71.29-2.6,0-.35.07-.65.14-1,.14-1,.28-2,.42-3.08,0-.26.08-.49.12-.76.63-4.19,1.5-8.81,2.61-13.82,0,0,0-.07,0-.09.36-1.62.74-3.27,1.19-5a3.92,3.92,0,0,0,.1-.48c.43-1.62.87-3.26,1.36-4.95,0-.14.07-.3.09-.44a222.93,222.93,0,0,1,10.95-30.1c.08-.17.16-.33.23-.49.88-2,1.82-4,2.8-6,.07-.17.17-.32.23-.48a232.15,232.15,0,0,1,19.27-32.33c.41-.59.84-1.17,1.26-1.72,1.26-1.72,2.55-3.44,3.89-5.18.5-.66,1-1.34,1.57-2,1.37-1.76,2.77-3.48,4.21-5.2.48-.59.95-1.15,1.43-1.73,2-2.33,4-4.6,6.08-6.92a3,3,0,0,0,.29-.28c2-2.14,4-4.3,6.11-6.43.65-.69,1.37-1.38,2.09-2.07,1.58-1.56,3.17-3.12,4.8-4.68.86-.77,1.69-1.56,2.55-2.33,1.66-1.54,3.36-3.07,5.14-4.59.8-.71,1.57-1.38,2.4-2.09,2.56-2.18,5.2-4.35,8-6.54,2.35-1.84,4.68-3.61,7-5.27.39-.27.75-.56,1.16-.82,2-1.42,3.94-2.76,5.89-4,.76-.49,1.48-1,2.23-1.5,0,0,.06,0,.09,0a174.37,174.37,0,0,1,19.86-11.1,0,0,0,0,1,0,0,1.29,1.29,0,0,0,.4-.16c1.5-.7,3-1.35,4.5-2,.75-.34,1.53-.72,2.31-1,1.46-.61,2.88-1.16,4.31-1.7.79-.27,1.58-.59,2.38-.86,1.38-.5,2.76-1,4.12-1.38.8-.26,1.61-.55,2.39-.75,1.32-.4,2.64-.8,4-1.14.79-.18,1.62-.41,2.4-.59,1.25-.34,2.54-.65,3.79-.91.81-.15,1.59-.32,2.39-.49,1.21-.23,2.43-.46,3.64-.65.78-.14,1.58-.26,2.37-.35,1.15-.18,2.32-.36,3.44-.46.81-.09,1.59-.19,2.39-.24,1.09-.11,2.21-.19,3.26-.29.8-.06,1.58-.08,2.35-.13,1.06,0,2.08-.09,3.12-.11.8,0,1.57,0,2.39,0s1.91,0,2.85,0,1.66.06,2.47.12,1.73.06,2.56.1,1.88.18,2.77.27c.68,0,1.38.11,2,.21,1.57.17,3.1.37,4.61.61l.47.06c1.33.23,2.67.47,3.94.73l1.2.25c1,.21,2,.43,3,.66l1.33.35c.71.18,1.42.35,2.11.54l.52.16.8.23c.91.27,1.83.54,2.71.82.27.1.56.18.85.31,1,.28,1.87.61,2.74.91a1.44,1.44,0,0,1,.37.15c1,.37,2,.73,2.94,1.13l.51.2,2.13.91c.19.07.43.2.65.3.65.27,1.31.6,1.9.85a2.79,2.79,0,0,0,.4.19c.74.38,1.43.72,2.07,1a3,3,0,0,0,.28.16c.52.27,1,.52,1.48.79l.46.27c.39.22.75.4,1.08.62l.35.19c.41.23.79.46,1.1.66a.12.12,0,0,0,.08.06,7.34,7.34,0,0,1,.75.49.93.93,0,0,1,.21.14l.36.22s.06,0,.11.07a.69.69,0,0,1,.12.09c.91.49,1.8,1.08,2.71,1.65.26.18.52.41.81.59.58.41,1.19.87,1.78,1.37.24.22.53.43.81.67.62.53,1.25,1.15,1.86,1.75l.5.43c.69.75,1.37,1.52,2,2.29.27.33.53.68.81,1,.38.52.78,1,1.16,1.58.26.36.53.74.79,1.15.4.58.75,1.15,1.1,1.77,5.44,9.07,8.06,20.59,7.08,32.46,0,.36-.07.74-.09,1.09-.2,2-.47,3.91-.85,5.87,10.34-.07,23-.23,33.39.6h.13l4.07.37c1.43.18,2.75.37,4,.58l.11,0s.05,0,.08.06a.71.71,0,0,1,.33.19.66.66,0,0,1,.13.12,1.41,1.41,0,0,1,.24.4s0,.1.06.15a6,6,0,0,1,.22,1.87.34.34,0,0,0,0,.17,7.38,7.38,0,0,1-.09,1.1,1.1,1.1,0,0,1,0,.26c-.6,6-4.25,17.85-8.84,32.65-.79,2.55-1.61,5.19-2.45,7.88a.15.15,0,0,1-.06.12c-.39,1.28-.77,2.58-1.18,3.86a2.5,2.5,0,0,1-.07.32c-.41,1.33-.85,2.68-1.25,4-.05.16-.08.33-.15.51-.34,1.13-.67,2.25-1,3.39-.11.37-.25.78-.35,1.17-.31,1-.63,2-.9,3-.13.37-.2.69-.31,1-.41,1.35-.83,2.74-1.23,4.14a2.27,2.27,0,0,1-.05.26c-.37,1.22-.72,2.47-1.08,3.74-.12.45-.23.87-.36,1.32-.28,1-.52,1.94-.8,2.92-.15.45-.25.89-.36,1.32-.36,1.32-.73,2.62-1.05,3.91,0,.2-.1.37-.15.56-.33,1.25-.65,2.51-1,3.79-.11.43-.22.9-.32,1.33-.26,1-.49,1.94-.72,2.9-.12.49-.23,1-.36,1.44-.29,1.18-.56,2.37-.82,3.52-.07.23-.1.45-.18.63q-.43,2.06-.91,4.1c-.08.41-.18.85-.27,1.27-.19,1-.4,2-.6,3-.07.45-.18.94-.29,1.38-.2,1.08-.41,2.18-.59,3.29a7.68,7.68,0,0,1-.2.81c-.23,1.33-.45,2.68-.67,4-.06.37-.12.78-.2,1.19-.15.95-.31,1.9-.45,2.87-.06.44-.14.87-.22,1.32-.11,1-.26,2-.39,3,0,.33-.07.65-.11,1-.16,1.28-.3,2.55-.41,3.81,0,.33-.08.67-.1,1-.08.94-.17,1.9-.24,2.8,0,.41-.08.82-.08,1.24-.08.94-.1,1.85-.15,2.79,0,.31,0,.6-.06.91,0,1.23-.08,2.4-.06,3.57,0,.24,0,.52,0,.77q0,1.38,0,2.71c0,.37,0,.72,0,1.1.05.85.09,1.69.16,2.5,0,.29.05.57.07.88.08,1.1.19,2.16.34,3.2a4.23,4.23,0,0,0,.06.54c.14.86.27,1.71.43,2.55.06.32.12.62.16.94.16.73.33,1.44.48,2.13.07.3.15.56.22.85.22.92.53,1.83.82,2.73,0,.09.07.15.08.23.3.79.59,1.55.91,2.33.1.26.22.49.33.75.29.58.58,1.17.87,1.76.14.22.24.45.37.66.48.77.88,1.49,1.39,2.19s1.11,1.51,1.65,2.18c.19.23.37.45.58.66a15.82,15.82,0,0,0,1.07,1.23c.22.27.48.51.7.74s.64.61,1,.93.48.45.7.67a17.1,17.1,0,0,0,1.46,1.1c.36.26.72.49,1.07.7.16.1.32.23.5.33.39.21.76.4,1.15.58.13.06.23.12.36.17a12.22,12.22,0,0,0,1.2.48v0c7.23,2.51,14.37-1.54,21-9.11v0c5.85-6.62,11.26-15.9,16-25.71,0-.11.1-.2.15-.3.76-1.54,1.47-3.1,2.19-4.64.06-.14.12-.3.18-.44.74-1.55,1.42-3.12,2.09-4.67,1.17-11,5-22.06,7.44-32.58,1.57-6.55,3.12-13.16,4.65-19.78.33-1.36.65-2.71,1-4.07,1.73-7.31,3.47-14.67,5.25-22a0,0,0,0,1,0,0c2.64-10.87,5.38-21.76,8.23-32.58.22-.77.4-1.54.6-2.32.91-3.42,1.83-6.86,2.75-10.29.53-1.87,1-3.73,1.56-5.59.69-2.51,1.39-5,2.11-7.52q1.94-6.78,4-13.47l-3.86,2.39c-.38.23-.81.43-1.2.69-.87.48-1.76,1-2.58,1.42-.49.29-1,.49-1.46.73-.75.43-1.54.81-2.28,1.2-.53.22-1,.43-1.54.66-.74.33-1.45.66-2.17.94-.52.22-1,.41-1.52.58-.72.3-1.41.6-2.08.83s-1,.33-1.55.51l-2,.65c-.54.14-1,.25-1.55.4l-1.95.53c-.53.11-1,.21-1.54.3s-1.28.26-1.93.38c-.48.09-1,.16-1.48.24s-1.23.19-1.87.26-1,.1-1.49.13-1.21.12-1.82.16l-1.46.08h-1.77c-.5,0-1,0-1.47,0l-1.72-.08c-.47,0-1-.05-1.41-.11s-1.15-.09-1.71-.18-.93-.11-1.4-.15-1.1-.19-1.65-.28l-1.41-.27c-.5-.1-1-.23-1.56-.36s-.91-.22-1.37-.34c-.2,0-.39-.07-.58-.12s-.27-.11-.41-.16a52.05,52.05,0,0,1-5-1.68l-.68-.28q-2.44-1-4.76-2.17l-.61-.32c-1.54-.85-3.08-1.71-4.58-2.67-.18-.09-.34-.2-.51-.31-1.5-1-3-2-4.37-3.09l-.4-.33c-1.44-1.13-2.84-2.29-4.19-3.5a2.43,2.43,0,0,1-.27-.27c-1.39-1.24-2.73-2.53-4-3.86a.64.64,0,0,0-.16-.19c-1.3-1.34-2.57-2.76-3.8-4.18l-.08-.12c-1.25-1.48-2.44-3-3.58-4.48-13.63-18.07-20.21-39.22-18.49-47.18h0a5,5,0,0,1,.31-1,.61.61,0,0,0,.1-.25,6.14,6.14,0,0,1,.33-.63,1.48,1.48,0,0,0,.17-.23,3.62,3.62,0,0,1,.4-.43c0-.06.13-.11.18-.17a2.38,2.38,0,0,1,.63-.33l.08-.06a2.74,2.74,0,0,1,.82-.11,1.88,1.88,0,0,0,.31,0l.64.1.17,0,.19.07a8.36,8.36,0,0,1,.85.35c.12.06.24.09.37.16a11,11,0,0,1,1.31.79l1.51,1c.19.12.38.21.57.31l1.23.68c.22.12.47.24.71.35s.81.43,1.25.62a8.73,8.73,0,0,0,.87.37c.42.2.83.39,1.3.6.3.14.65.26,1,.4s1,.38,1.43.56l1.07.4,1.55.55c.39.12.74.24,1.11.38.6.22,1.23.39,1.84.58.34.1.7.22,1.06.34,1,.28,2,.59,3,.87a3.76,3.76,0,0,1,.47.13c1.11.31,2.25.6,3.43.9.41.09.84.21,1.25.32,1.11.26,2.25.5,3.48.79l.75.16c1.38.31,2.84.6,4.33.89l1.31.27c1.22.23,2.44.4,3.67.63.39.09.8.16,1.21.22,1.57.27,3.17.54,4.81.76.39.07.84.11,1.22.18l4.14.56,1.44.19,5.33.6c.26,0,.56.06.81.08,1.59.17,3.19.29,4.83.43.53.07,1.08.11,1.59.14,1.74.14,3.53.3,5.32.39l.5,0c2,.12,3.94.22,6,.29.54,0,1,0,1.58.08,1.69,0,3.39.12,5.08.13l1.24,0q3.12.05,6.25.05c.48,0,1,0,1.47,0L1502,163c.53,0,1.06,0,1.59,0,2.15-.06,4.34-.13,6.53-.21l1.09-.06c1.86-.09,3.75-.2,5.66-.31.6,0,1.23-.06,1.83-.12,2.26-.14,4.49-.32,6.79-.51.79-2.1,1.59-4.21,2.45-6.29,5.25-13.09,11-26,17.28-38.56,8.76-17.37,19.45-33.61,32.69-47.72,10.49-11.22,22.37-19.75,36.07-27,2.33-1.06,4.65-2,6.94-2.95l1.89-.74c1.82-.69,3.61-1.35,5.41-1.95.49-.19,1-.35,1.47-.53,2.21-.71,4.4-1.37,6.56-2,.45-.11.91-.24,1.39-.35,1.77-.45,3.47-.85,5.18-1.22.6-.15,1.19-.26,1.78-.36,2-.43,4.09-.77,6.07-1a.44.44,0,0,1,.19,0c2-.32,4.07-.54,6.05-.68l1.69-.13c1.57-.1,3.13-.14,4.66-.21h1.38c1.91,0,3.81,0,5.67.08.39.05.8.06,1.18.11,1.52.07,3,.19,4.45.36.54,0,1.06.1,1.58.17,1.66.2,3.34.45,5,.74a3.36,3.36,0,0,0,.36,0c1.74.33,3.44.69,5.11,1.13.48.1,1,.23,1.43.36s1.15.26,1.7.43c.36.1.74.26,1.11.36,1.62.48,3.21,1,4.77,1.53.52.18,1.12.37,1.65.59,2.09.77,4.1,1.61,6.08,2.5.17.1.37.19.58.29,1.77.85,3.51,1.72,5.2,2.66.47.28.9.53,1.35.78,1.5.88,3,1.76,4.4,2.68l1,.65a85.79,85.79,0,0,1,9.89,7.72c.09.1.22.18.31.29,1.45,1.33,2.84,2.66,4.14,4a3,3,0,0,0,.23.24c12.3,12.93,18.77,27.92,18.12,39.21-.07,1.8-.28,3.5-.49,5.16-.09.52-.18,1.06-.26,1.56-.19,1.17-.43,2.3-.68,3.4-.13.55-.27,1.09-.41,1.61-.31,1.15-.65,2.22-1,3.3-.16.4-.24.82-.4,1.22-.52,1.35-1.08,2.62-1.7,3.88-.27.53-.55,1-.85,1.55-.4.74-.82,1.45-1.25,2.11s-.76,1.19-1.16,1.74-.79,1-1.18,1.58-.95,1.16-1.46,1.7c-.28.31-.57.56-.89.86a32.23,32.23,0,0,1-3.82,3.42c-.28.19-.54.41-.81.61-.78.56-1.58,1.07-2.41,1.58-.27.13-.53.3-.78.44a40.71,40.71,0,0,1-13.4,4.64l-.27,0a62.58,62.58,0,0,1-25.06-1.51c-13.3-3.29-12.43-9.44-12.43-9.44a34.37,34.37,0,0,0,5.4-4.22h-.11c9.75-9.26,12.33-22.55,8.45-31.25a.62.62,0,0,1-.08-.19,12.21,12.21,0,0,0-1.17-2.09,1.67,1.67,0,0,0-.12-.2,13.75,13.75,0,0,0-3.17-3.38,3.06,3.06,0,0,0-.32-.25,12.87,12.87,0,0,0-1.89-1.16l-.37-.17a11.86,11.86,0,0,0-2.26-.86h0a17.73,17.73,0,0,0-3.27-.55c-15.9-1.15-30.54,5.48-44.82,36.15-3.94,8.42-8.62,23.27-13.35,40.31,1.08-.07,2.46,0-.06.22,6.93.43,14.19.61,21.55.59v0a2.06,2.06,0,0,0,.56,0h1.15c2.39,0,4.79-.06,7.19-.11,8.16-.21,16.38-.57,24.3-1.1l.57,0c10.8-.74,21.08-1.69,30.09-2.64l3.24-.36a2.73,2.73,0,0,1,.52,0l3.12-.37.28,0c6.67-.76,12.39-1.5,16.8-2.12l.32,0c.57-.09,1.13-.18,1.68-.22a3.36,3.36,0,0,1,.55-.1c.52-.06,1-.15,1.4-.21a4.57,4.57,0,0,0,.47-.07c.47-.05.9-.13,1.31-.18l.32-.05c.4,0,.71-.09,1-.13a2.25,2.25,0,0,1,.36-.07l.8-.13h.2c.25,0,.47-.09.63-.1s0,0,0,0,.34,0,.43-.07l.19,0c2-.07,3.85-.11,5.64-.16a7.78,7.78,0,0,0,1,0c1.61,0,3.13,0,4.6.07l1.21.07c1.36.06,2.68.16,3.89.24l1.16.16c.87.09,1.72.2,2.52.3.51.07,1,.15,1.54.24l1.82.33s0,0,0,0c13.39,2.73,14.84,8.46,14.84,8.46-3.42,8.35-7.22,18.09-11.12,28.72-3.72,10.07-7.55,21-11.22,32.35a1.26,1.26,0,0,0-.13.41c-.62,1.86-1.22,3.71-1.8,5.56-.22.68-.44,1.36-.65,2-.53,1.68-1.06,3.36-1.58,5.07-.26.85-.53,1.72-.78,2.58-.5,1.62-1,3.23-1.47,4.85-.3.94-.58,1.92-.86,2.86-.49,1.56-.94,3.13-1.38,4.72-.3,1.06-.61,2.12-.91,3.18-.42,1.48-.87,3-1.28,4.53-.64,2.29-1.25,4.58-1.87,6.88-.35,1.32-.67,2.59-1,3.89s-.76,2.89-1.11,4.33c-.31,1.2-.61,2.38-.89,3.6-.34,1.42-.7,2.83-1,4.25-.27,1.19-.54,2.35-.83,3.56-.33,1.42-.65,2.88-1,4.29-.26,1.15-.51,2.27-.74,3.42-.31,1.52-.64,3-1,4.48-.22,1-.43,2.11-.63,3.14-.35,1.7-.66,3.38-1,5-.16.82-.32,1.66-.47,2.49-.42,2.46-.85,4.91-1.23,7.32-.08.49-.17.95-.24,1.42-.29,2-.59,3.92-.86,5.82-.1.83-.22,1.66-.31,2.5-.19,1.53-.38,3.06-.53,4.59-.11.92-.18,1.78-.29,2.65-.12,1.45-.27,2.87-.37,4.24-.07.89-.12,1.78-.18,2.64-.11,1.4-.19,2.78-.23,4.17-.05.79-.08,1.6-.12,2.38,0,1.5-.07,3-.06,4.41,0,.63,0,1.24,0,1.86,0,2,.06,4,.16,6,0,.19,0,.36,0,.52.11,1.72.24,3.43.41,5.1.07.6.16,1.18.23,1.76.16,1.21.33,2.42.53,3.54.11.65.23,1.26.34,1.91.22,1,.44,2.06.7,3.06.14.6.32,1.23.47,1.82.27,1,.58,1.88.88,2.77.19.56.38,1.11.57,1.65.4.94.8,1.83,1.22,2.72.18.41.39.86.6,1.28a30.93,30.93,0,0,0,2.12,3.52c.85,1.17,1.66,2.22,2.47,3.17.18.2.33.33.5.53.69.74,1.34,1.48,2,2.07.13.1.24.18.36.29a27.51,27.51,0,0,0,2.14,1.73l.27.15a20.55,20.55,0,0,0,2.26,1.27c7,3.23,13.9.13,20.41-6.44.66-.67,1.33-1.38,2-2.13a4.23,4.23,0,0,0,.52-.58c.85-1,1.66-2,2.48-3.05.11-.18.25-.35.33-.51.7-.91,1.4-1.87,2-2.85.26-.36.47-.7.72-1.06.57-.83,1.11-1.69,1.67-2.56.25-.39.49-.78.7-1.18.56-.91,1.13-1.8,1.67-2.75.19-.37.42-.74.61-1.1.68-1.17,1.34-2.36,2-3.55a3.22,3.22,0,0,0,.22-.42c.75-1.38,1.44-2.8,2.16-4.21.11-.24.24-.45.35-.7l1.69-3.52c.18-.4.37-.78.57-1.19.47-1,1-2.07,1.4-3.12.2-.39.39-.81.57-1.25.48-1.05,1-2.13,1.4-3.2.15-.35.31-.67.43-1,1.22-2.84,2.37-5.64,3.42-8.38.11-.27.2-.53.3-.81.43-1.07.82-2.16,1.22-3.19.14-.37.28-.76.41-1.11.36-1,.69-1.87,1-2.76.15-.36.28-.74.41-1.12.32-.92.62-1.81,1-2.66.09-.28.2-.6.3-.87.4-1.15.76-2.24,1.15-3.29,7.49-39.09,27.16-137.29,40.68-167.73,0,0,12.85-19.95,79.42-10.92,1.41.18,2.76.39,4.05.58.4.09.78.15,1.2.21l2.66.52c.33.07.69.12,1,.2,2.32.48,4.39,1,6.24,1.49l.23,0,.4.13c.73.2,1.42.39,2.08.62l.54.18c1.59.5,3,1,4.1,1.44a3.14,3.14,0,0,1,.35.14l1.2.49c.1.07.2.09.3.15.88.38,1.51.7,2,.92l.19.1.36.19a.23.23,0,0,1,.06.05l.14.07a.74.74,0,0,1-.05.14s0,.1,0,.15c-.36,1.07-1.74,5.12-3.86,11.76-1.63,5.07-3.72,11.67-6.16,19.56-.4,1.17-.77,2.38-1.13,3.6l-.35,1.11c-.32,1-.63,2.09-1,3.18-.14.49-.31,1-.47,1.53-.43,1.42-.85,2.87-1.32,4.34v0c-.47,1.59-1,3.18-1.44,4.86-.11.33-.22.66-.31,1-.45,1.45-.9,3-1.35,4.52a5.09,5.09,0,0,0-.19.68c-.53,1.79-1.09,3.59-1.62,5.43-.05.19-.12.36-.15.52-.51,1.67-1,3.39-1.5,5.12q-.14.46-.26.9c-1.12,3.77-2.24,7.69-3.36,11.7-.11.4-.26.82-.36,1.22-.55,1.91-1.08,3.83-1.62,5.77a.94.94,0,0,0-.07.31c-.6,2.07-1.19,4.18-1.8,6.3-.11.4-.19.77-.32,1.13-.45,1.83-1,3.67-1.47,5.5-.11.4-.22.79-.36,1.21-.57,2.16-1.16,4.36-1.76,6.58a6,6,0,0,0-.17.6c-.53,2-1.07,4.06-1.61,6.12-.12.47-.27,1-.41,1.45-.57,2.15-1.16,4.33-1.71,6.5,0,.11-.06.22-.1.32-.58,2.28-1.18,4.6-1.8,6.9-.13.55-.27,1.07-.41,1.61-.49,1.92-1,3.88-1.48,5.84-.12.44-.25.91-.38,1.37-.57,2.32-1.16,4.64-1.75,7-.13.49-.27,1-.37,1.46-.5,2-1,3.93-1.46,5.89-.18.62-.28,1.2-.44,1.83-.57,2.38-1.19,4.81-1.78,7.22,0,.18-.06.33-.09.48-.58,2.25-1.1,4.54-1.63,6.82-.18.73-.35,1.42-.49,2.12-.48,2-.91,3.93-1.42,5.91-.1.56-.24,1.08-.36,1.62-.56,2.41-1.1,4.83-1.67,7.26-.15.68-.28,1.34-.44,2q-.62,2.88-1.29,5.73c-.17.72-.3,1.43-.47,2.14-.53,2.46-1.08,4.94-1.61,7.43-.11.41-.19.83-.28,1.26q-.66,3.2-1.35,6.37c-.15.75-.32,1.5-.48,2.27-.45,2.22-.91,4.46-1.37,6.68-.07.32-.13.66-.2,1-.51,2.54-1,5.07-1.53,7.62-.14.68-.26,1.35-.41,2.05-.38,2-.78,4.1-1.17,6.11-.13.61-.23,1.25-.35,1.89-.49,2.51-.95,5.07-1.42,7.62-.1.5-.2,1-.3,1.51l-1.13,6.37c-.15.72-.26,1.4-.37,2.12-.46,2.58-.91,5.15-1.35,7.74,1.15-1,2.31-1.95,3.49-2.87l.61-.47c1-.74,2-1.48,3-2.2a1.9,1.9,0,0,1,.31-.2,81.66,81.66,0,0,1,43.66-15.49s0,0,0,0a83.8,83.8,0,0,1,14.79.51l.5.07c2.26.28,4.51.64,6.67,1.07l.65.12c2.19.44,4.36,1,6.5,1.54l.24.08.23.06c1.32.36,2.66.76,3.91,1.18.29.1.6.21.85.28,1.09.37,2.16.74,3.22,1.14a8.11,8.11,0,0,1,.85.31c1.28.46,2.5.95,3.75,1.48l.55.26c1.09.43,2.15.89,3.16,1.39a7,7,0,0,1,.85.37c1.2.58,2.41,1.15,3.57,1.74l0,0c1.16.6,2.26,1.19,3.38,1.81.25.12.49.28.73.42,1.09.61,2.2,1.23,3.23,1.87l0,0c1.12.67,2.2,1.36,3.26,2l.48.32c1,.66,2,1.32,2.94,2,0,0,.05,0,.07.07,1,.72,2.07,1.48,3,2.24l.09.05c1,.73,1.92,1.5,2.84,2.22h0C2018.71,435,2024.88,447.93,2014,447.58ZM807.67,385.76c-6.27-3.55-8.26-11.33-9.19-17.49a83.22,83.22,0,0,1-.75-8.92c-.36-8.35.09-18.7,4.11-25.75a2.21,2.21,0,0,1,1.12-1.21c.93,1.53,1,3.54,1.4,5.24a55,55,0,0,0,4.5,12.51c4.3,8.48,14,17.3,15,26.69C824.83,385.65,815.41,390.14,807.67,385.76Z" fill="#fb503d"/><path d="M1358.3,233c-.13-.67-.28-1.33-.45-2-.07-.23-.13-.5-.22-.75a16.33,16.33,0,0,0-.71-1.86,3.48,3.48,0,0,0-.28-.57,14.35,14.35,0,0,0-1.29-2.28s-.06-.07-.07-.1a17.15,17.15,0,0,0-1.61-1.88l-.59-.57c-.49-.42-1-.84-1.5-1.23l-.81-.55a16.4,16.4,0,0,0-1.77-1l-.82-.45a31.3,31.3,0,0,0-3-1.14,14.35,14.35,0,0,0-1.74-.43,11.83,11.83,0,0,0-1.17-.26c-.46-.09-.94-.16-1.44-.23s-.79-.1-1.18-.14-.94-.07-1.38-.1-.82,0-1.23,0l-1.4,0s-.06,0-.09,0l-.2,0a8.4,8.4,0,0,0-.92.07c-.46,0-.91.09-1.37.14l-1.29.18c-.44.06-.88.16-1.32.27s-.86.16-1.3.27l-1.28.33a.51.51,0,0,0-.19.07l-.85.23-.22.06-.07,0c-.43.13-.83.29-1.26.44l-1,.31a3.13,3.13,0,0,1-.29.11l-.08,0c-.4.16-.82.3-1.19.47l-1.4.57c-.38.16-.76.34-1.14.49l-.31.16c-.24.12-.47.22-.69.31l-.36.18c-.4.19-.76.38-1.12.58l-.73.39-.58.29s0,0-.09,0c-.32.19-.68.38-1,.59s-.93.52-1.42.79a9.85,9.85,0,0,1-1,.57l-.46.32a8.51,8.51,0,0,0-.86.54s-.09,0-.1,0l-.91.62c-.51.3-.95.62-1.41.94l-.86.58c-.24.18-.49.34-.73.52s-.4.29-.58.41c0,0-.1.06-.12.07-.24.22-.49.39-.75.58l-.69.51a6.66,6.66,0,0,0-.64.49.38.38,0,0,1-.12.07c-.22.19-.43.35-.66.53a5,5,0,0,0-.58.49c-.26.18-.5.38-.77.58l-.08.06c-.19.17-.4.32-.58.5s-.44.37-.65.54l-.12.1-.66.53-.53.47c-.49.4-1,.81-1.4,1.19l-.45.37c-.25.24-.51.46-.78.71s-.34.29-.5.46l-.1.08c-.13.14-.28.27-.42.4-.37.36-.77.7-1.15,1.07l-.05.06a.29.29,0,0,0-.1.08,3.88,3.88,0,0,0-.32.3c-.28.25-.49.48-.75.72a3.4,3.4,0,0,0-.46.45.14.14,0,0,1-.08,0c-.12.12-.19.21-.31.32-.39.39-.81.77-1.16,1.17-.1.07-.18.17-.28.24-.22.25-.48.48-.69.7s-.24.24-.36.37l-.06.06a.59.59,0,0,1-.19.19c-.33.33-.62.64-.92,1l0,.06a.36.36,0,0,0-.11.1c-.7.74-1.33,1.44-1.86,2l-.05.06s0,0,0,0,0,0,0,0l-1.31,1.44,0,0s0,0,0,0h0l-.21.26a1.08,1.08,0,0,0-.23.28s0,0,0,0a2.9,2.9,0,0,0-.24.27.63.63,0,0,1-.1.13c-1.73,2-3.35,4.22-5,6.39-.52.7-1,1.43-1.56,2.16q-1.63,2.24-3.19,4.58c-.65,1-1.3,1.93-1.95,2.93-.51.81-1,1.64-1.52,2.45-1.8,2.88-3.55,5.84-5.22,8.87-.6,1.07-1.19,2.11-1.79,3.19-.77,1.43-1.53,2.85-2.25,4.31.31-.62.64-1.25,1-1.87-1,1.82-1.87,3.66-2.79,5.52-.49,1-1,2.09-1.52,3.15l-.1.2c-.24.53-.47,1.06-.71,1.58-1.55,3.37-3,6.76-4.41,10.21-.5,1.27-1,2.53-1.52,3.81-.36.95-.72,1.87-1.07,2.81-.88,2.39-1.75,4.77-2.55,7.16.55-1.57,1.08-3.14,1.66-4.74-.72,1.92-1.37,3.81-2,5.74-.16.49-.29,1-.44,1.46-1.21,3.6-2.26,7.21-3.25,10.82-.48,1.69-.94,3.39-1.39,5.06-.31,1.17-.62,2.37-.9,3.54.15-.54.29-1.13.46-1.69-1.24,5-2.19,9.83-3,14.65-.32,1.86-.68,3.73-.95,5.55s-.53,3.69-.74,5.45c-.05.43-.1.87-.14,1.31a149.73,149.73,0,0,0-.85,15.5c0-.63,0-1.22,0-1.86,0,1.8,0,3.57,0,5.29,0-.87,0-1.76,0-2.64,0,2.37.09,4.66.27,6.88-.11-1.16-.2-2.34-.23-3.56,1,28,12.6,46,38.39,38.47,1-.3,2.08-.62,3.19-1a27.39,27.39,0,0,0,3.1-1.4c.28-.14.56-.32.87-.5a23.87,23.87,0,0,0,2.33-1.46c.24-.16.52-.35.76-.54,1-.74,2-1.55,3-2.4l.5-.47c.83-.77,1.63-1.57,2.44-2.41.3-.29.57-.61.85-.9.78-.86,1.57-1.79,2.37-2.75a5.52,5.52,0,0,0,.52-.62c.94-1.16,1.85-2.39,2.79-3.67.19-.31.42-.62.64-.93.71-1.06,1.44-2.11,2.15-3.21.27-.37.49-.76.73-1.14.9-1.39,1.77-2.84,2.66-4.31v0c.89-1.52,1.75-3.1,2.61-4.69.23-.41.44-.84.66-1.27.67-1.25,1.35-2.57,2-3.87.18-.41.4-.78.57-1.18.85-1.66,1.64-3.36,2.46-5.11.1-.23.22-.47.31-.71.72-1.52,1.39-3.07,2.07-4.63.22-.45.41-.94.62-1.42.68-1.54,1.3-3.07,1.94-4.6l.35-.82q1.14-2.77,2.22-5.57l.46-1.1c.58-1.53,1.16-3.06,1.72-4.62a13.74,13.74,0,0,0,.53-1.38c.65-1.84,1.35-3.73,2-5.56,5.33-15,9.73-29.91,13-42-20.77-5.67-35.15-27.63-15.84-27.82,18.64-.16,36.6-24.09,36.2-42a24.73,24.73,0,0,0-.25-2.71C1358.37,233.42,1358.31,233.21,1358.3,233Z" fill="#fb503d"/><path d="M1670.4,205.35a1.51,1.51,0,0,0-.32-.12c-.86-.33-2.44-.95-4.53-1.69l-.25-.07c-.78-.27-1.7-.59-2.61-.89-11.22-3.76-31.44-9.28-43.56-5.33l-.66.22a15.33,15.33,0,0,0-1.62.69,1.64,1.64,0,0,1,.32-.14l-.89.4a19.34,19.34,0,0,0-1.7,1.06l-.54.45h0a10.48,10.48,0,0,0-1.23,1.11v0a11,11,0,0,0-1.73,2.36c0,.06-.09.1-.1.18a.18.18,0,0,0,0-.08,13.88,13.88,0,0,0-1,2.24c-6.95,22.07-13.19,58.19-13.19,58.19-.68,3-1.33,6-2,8.93-.13.68-.3,1.32-.43,2q-1.07,4.6-2.09,9.16c-.64,2.79-1.27,5.56-1.91,8.32,0,.23-.1.48-.16.7-.66,3-1.35,6-2,8.86-.08.31-.12.61-.2.89-1.35,6-2.65,11.89-3.89,17.65a5.18,5.18,0,0,0-.1.52c-.61,2.87-1.22,5.78-1.79,8.59,0,0,0,.11,0,.15q-1.79,8.6-3.21,16.63a2.18,2.18,0,0,1-.05.27c-1.44,8.08-2.6,15.63-3.37,22.55-.52,4.6-.84,8.9-1,12.86a.45.45,0,0,0,0,.19,86.74,86.74,0,0,0,.23,10.86c.61,6.39,2.09,11.38,4.76,14.52,9.89,11.82,23.1,5.69,36.59-8.31-.2.19-.41.37-.59.56.82-.85,1.67-1.75,2.51-2.67-.45.51-.95,1.07-1.41,1.55.66-.7,1.35-1.45,2-2.2s1.06-1.21,1.6-1.81c.39-.44.78-.89,1.16-1.35,4.36-5.14,8.7-11,13-17.13.29-.45.62-.9.91-1.36.55-.77,1.07-1.56,1.58-2.36.85-1.25,1.67-2.51,2.52-3.78a172.6,172.6,0,0,1-.56-17.6c0-.46,0-.92,0-1.39.08-3.06.22-6.11.48-9.21,0,0,0-.14,0-.3a.42.42,0,0,0,0-.12c0-.23.07-.56.08-1v0c0-.44.08-1,.14-1.67a.11.11,0,0,1,0-.08c.07-.69.14-1.5.22-2.39a.51.51,0,0,1,0-.07c.22-1.86.49-4.15.82-6.88a.15.15,0,0,1,0-.05c1.22-9.65,3.6-24.68,8.08-44.58,0,0,0-.08,0-.11q1.91-8.49,4.39-18.16a.68.68,0,0,1,0-.11c3.94-15.56,9-33.34,15.51-53.18.68-2.09,1.38-4.15,2.09-6.26l-.23-.08A.59.59,0,0,1,1670.4,205.35Z" fill="#fb503d"/></svg>